# This file uses feet as units for non-parametric coordinates.

mtllib block_environment.mtl
g default
v -15.240000 -15.240005 15.240000
v 15.240000 -15.240005 15.240000
v -15.240000 167.639999 15.240000
v 15.240000 167.639999 15.240000
v -15.240000 167.639999 -15.240000
v 15.240000 167.639999 -15.240000
v -15.240000 -15.240005 -15.240000
v 15.240000 -15.240005 -15.240000
v -388.398529 -45.720001 357.652130
v 326.905731 -45.720001 357.652130
v -388.398529 -15.240000 357.652130
v 326.905731 -15.240000 357.652130
v -388.398529 -15.240000 -357.652130
v 326.905731 -15.240000 -357.652130
v -388.398529 -45.720001 -357.652130
v 326.905731 -45.720001 -357.652130
v -388.010101 363.941284 357.652130
v -388.010132 -59.141319 357.652130
v -357.530121 363.941284 357.652130
v -357.530151 -59.141319 357.652130
v -357.530121 363.941284 -357.652130
v -357.530151 -59.141319 -357.652130
v -388.010101 363.941284 -357.652130
v -388.010132 -59.141319 -357.652130
v -388.079681 363.941284 -387.413513
v -388.079712 -59.141373 -387.413513
v -388.079681 363.941284 -356.933533
v -388.079712 -59.141373 -356.933533
v 327.224518 363.941284 -356.933533
v 327.224548 -59.141373 -356.933533
v 327.224518 363.941284 -387.413513
v 327.224548 -59.141373 -387.413513
v -388.079712 194.708252 -387.413513
v -388.079712 194.708252 -356.933533
v 327.224518 194.708252 -356.933533
v 327.224518 194.708252 -387.413513
v -388.079712 279.324768 -387.413513
v -388.079712 279.324768 -356.933533
v 327.224518 279.324768 -356.933533
v 327.224518 279.324768 -387.413513
v 112.633224 363.941284 -356.933533
v 112.633224 279.324768 -356.933533
v 112.633224 194.708252 -356.933533
v 112.633224 -59.141373 -356.933533
v 112.633224 -59.141373 -387.413513
v -137.723282 363.941284 -356.933533
v -137.723267 279.324768 -356.933533
v -137.723282 194.708252 -356.933533
v -137.723267 -59.141373 -356.933533
v -137.723267 -59.141373 -387.413513
v 112.633224 279.324768 -330.086060
v 112.633224 194.708252 -330.086060
v -137.723267 279.324768 -330.086060
v -137.723282 194.708252 -330.086060
v 98.369156 266.160706 -330.086060
v 99.469116 208.972321 -330.086060
v -124.559196 265.060730 -330.086029
v -123.459229 207.872330 -330.086060
v 98.369156 266.160706 -383.922607
v 99.469116 208.972321 -383.922607
v -124.559235 265.060730 -383.922607
v -123.459236 207.872330 -383.922607
v -388.398529 350.520020 357.652130
v 326.905731 350.520020 357.652130
v -388.398529 381.000000 357.652130
v 326.905731 381.000000 357.652130
v -388.398529 381.000000 -357.652130
v 326.905731 381.000000 -357.652130
v -388.398529 350.520020 -357.652130
v 326.905731 350.520020 -357.652130
v -333.638000 -12.242906 -284.245026
v -307.279236 -12.236135 -284.245026
v -338.265686 24.891834 -279.619995
v -302.681396 24.900972 -279.619995
v -338.265686 24.882729 -315.204285
v -302.681396 24.891865 -315.204285
v -333.638000 -12.249651 -310.603790
v -307.279236 -12.242882 -310.603821
v -337.683228 0.267313 -314.638428
v -303.811646 -14.383877 -297.423889
v -337.104553 -14.392427 -297.423889
v -296.211487 24.898079 -297.412140
v -344.735535 24.885620 -297.412140
v -320.458069 -14.383891 -280.777435
v -303.244629 0.284969 -280.199829
v -320.473511 24.898058 -273.150146
v -337.683228 0.276126 -280.199829
v -320.473511 24.885641 -321.674164
v -303.244629 0.276157 -314.638428
v -320.458069 -14.392410 -314.070312
v -320.463837 -0.040656 -273.920837
v -320.463867 -0.052681 -320.917236
v -320.457886 -15.143387 -297.423645
v -296.965637 -0.040632 -297.419067
v -343.962097 -0.052702 -297.419067
v -328.906250 -8.971127 -277.656189
v -312.012695 -8.966790 -277.656189
v -310.763428 11.955938 -274.772400
v -330.172974 11.950955 -274.772400
v -330.172974 11.939363 -320.061493
v -310.763367 11.944349 -320.061493
v -312.012665 -8.976908 -317.194275
v -328.906250 -8.981246 -317.194275
v -328.904633 -15.152051 -305.870453
v -312.011108 -15.147713 -305.870453
v -312.011108 -15.143391 -288.976898
v -328.904633 -15.147730 -288.976898
v -300.690399 -8.966782 -288.978485
v -300.690399 -8.971101 -305.872040
v -297.823669 11.950985 -307.121704
v -297.823669 11.955952 -287.712097
v -340.228516 -8.981256 -305.872040
v -340.228516 -8.976932 -288.978485
v -343.112762 11.944321 -287.712097
v -343.112762 11.939354 -307.121765
v -320.459351 -9.465388 -276.218323
v -311.073608 0.122521 -275.493408
v -320.468201 11.953859 -273.154968
v -329.854187 0.117700 -275.493408
v -320.468201 11.941443 -321.678955
v -311.073608 0.111302 -319.344757
v -320.459351 -9.476243 -318.631927
v -329.854187 0.106477 -319.344757
v -320.457825 -15.375990 -306.499390
v -311.382019 -15.371338 -297.423584
v -320.457825 -15.371339 -288.347778
v -329.533569 -15.375996 -297.423584
v -299.252533 -9.465370 -297.425110
v -298.538239 0.117727 -306.809387
v -296.206238 11.953882 -297.416931
v -298.538239 0.122535 -288.028778
v -341.666138 -9.476261 -297.425110
v -342.389587 0.111272 -288.028778
v -344.730225 11.941422 -297.416931
v -342.389587 0.106468 -306.809387
v -328.276001 -13.704507 -281.923309
v -312.640442 -13.700489 -281.923309
v -304.958832 -8.475066 -281.924652
v -302.676056 11.956770 -279.624786
v -310.768707 24.900135 -274.767578
v -330.178345 24.895153 -274.767578
v -338.260376 11.947632 -279.624786
v -335.960327 -8.483029 -281.924652
v -330.178345 24.883564 -320.056702
v -310.768707 24.888546 -320.056702
v -302.676056 11.947664 -315.209106
v -304.958832 -8.483000 -312.926086
v -312.640442 -13.708424 -312.924774
v -328.276001 -13.712439 -312.924774
v -335.960327 -8.490961 -312.926086
v -338.260376 11.938526 -315.209106
v -304.957520 -13.704485 -305.241791
v -304.957520 -13.700481 -289.606293
v -335.958984 -13.708443 -289.606293
v -335.958984 -13.712444 -305.241791
v -297.828979 24.895184 -307.116943
v -297.828979 24.900150 -287.707336
v -343.118103 24.888519 -287.707336
v -343.118103 24.883553 -307.116943
v -104.481651 200.800949 -354.373535
v -96.785553 200.800949 -354.373535
v -104.481651 269.127747 -354.373535
v -96.785553 269.127747 -354.373535
v -104.481651 269.127747 -362.069641
v -96.785553 269.127747 -362.069641
v -104.481651 200.800949 -362.069641
v -96.785553 200.800949 -362.069641
v -95.502869 200.800949 -358.221588
v -95.502869 269.127747 -358.221588
v -105.764328 200.800949 -358.221588
v -105.764328 269.127747 -358.221588
v -100.633598 200.800949 -353.090851
v -96.785553 234.964355 -354.373535
v -100.633598 269.127747 -353.090851
v -104.481651 234.964355 -354.373535
v -100.633598 269.127747 -363.352325
v -96.785553 234.964355 -362.069641
v -100.633598 200.800949 -363.352325
v -104.481651 234.964355 -362.069641
v -100.633598 234.964355 -353.090851
v -100.633598 234.964355 -363.352325
v -95.502869 234.964355 -358.221588
v -105.764328 234.964355 -358.221588
v -68.477631 200.800949 -354.373535
v -60.781532 200.800949 -354.373535
v -68.477631 269.127747 -354.373535
v -60.781532 269.127747 -354.373535
v -68.477631 269.127747 -362.069641
v -60.781532 269.127747 -362.069641
v -68.477631 200.800949 -362.069641
v -60.781532 200.800949 -362.069641
v -59.498848 200.800949 -358.221588
v -59.498848 269.127747 -358.221588
v -69.760315 200.800949 -358.221588
v -69.760315 269.127747 -358.221588
v -64.629578 200.800949 -353.090851
v -60.781532 234.964355 -354.373535
v -64.629578 269.127747 -353.090851
v -68.477631 234.964355 -354.373535
v -64.629578 269.127747 -363.352325
v -60.781532 234.964355 -362.069641
v -64.629578 200.800949 -363.352325
v -68.477631 234.964355 -362.069641
v -64.629578 234.964355 -353.090851
v -64.629578 234.964355 -363.352325
v -59.498848 234.964355 -358.221588
v -69.760315 234.964355 -358.221588
v -30.848795 200.800949 -354.373535
v -23.152695 200.800949 -354.373535
v -30.848795 269.127747 -354.373535
v -23.152695 269.127747 -354.373535
v -30.848795 269.127747 -362.069641
v -23.152695 269.127747 -362.069641
v -30.848795 200.800949 -362.069641
v -23.152695 200.800949 -362.069641
v -21.870012 200.800949 -358.221588
v -21.870012 269.127747 -358.221588
v -32.131477 200.800949 -358.221588
v -32.131477 269.127747 -358.221588
v -27.000744 200.800949 -353.090851
v -23.152695 234.964355 -354.373535
v -27.000744 269.127747 -353.090851
v -30.848795 234.964355 -354.373535
v -27.000744 269.127747 -363.352325
v -23.152695 234.964355 -362.069641
v -27.000744 200.800949 -363.352325
v -30.848795 234.964355 -362.069641
v -27.000744 234.964355 -353.090851
v -27.000744 234.964355 -363.352325
v -21.870012 234.964355 -358.221588
v -32.131477 234.964355 -358.221588
v 4.453928 200.800949 -354.373535
v 12.150028 200.800949 -354.373535
v 4.453928 269.127747 -354.373535
v 12.150028 269.127747 -354.373535
v 4.453928 269.127747 -362.069641
v 12.150028 269.127747 -362.069641
v 4.453928 200.800949 -362.069641
v 12.150028 200.800949 -362.069641
v 13.432712 200.800949 -358.221588
v 13.432712 269.127747 -358.221588
v 3.171246 200.800949 -358.221588
v 3.171246 269.127747 -358.221588
v 8.301978 200.800949 -353.090851
v 12.150028 234.964355 -354.373535
v 8.301978 269.127747 -353.090851
v 4.453928 234.964355 -354.373535
v 8.301978 269.127747 -363.352325
v 12.150028 234.964355 -362.069641
v 8.301978 200.800949 -363.352325
v 4.453928 234.964355 -362.069641
v 8.301978 234.964355 -353.090851
v 8.301978 234.964355 -363.352325
v 13.432712 234.964355 -358.221588
v 3.171246 234.964355 -358.221588
v 43.646912 200.800949 -354.373535
v 51.343010 200.800949 -354.373535
v 43.646912 269.127747 -354.373535
v 51.343010 269.127747 -354.373535
v 43.646912 269.127747 -362.069641
v 51.343010 269.127747 -362.069641
v 43.646912 200.800949 -362.069641
v 51.343010 200.800949 -362.069641
v 52.625694 200.800949 -358.221588
v 52.625694 269.127747 -358.221588
v 42.364227 200.800949 -358.221588
v 42.364227 269.127747 -358.221588
v 47.494961 200.800949 -353.090851
v 51.343010 234.964355 -354.373535
v 47.494961 269.127747 -353.090851
v 43.646912 234.964355 -354.373535
v 47.494961 269.127747 -363.352325
v 51.343010 234.964355 -362.069641
v 47.494961 200.800949 -363.352325
v 43.646912 234.964355 -362.069641
v 47.494961 234.964355 -353.090851
v 47.494961 234.964355 -363.352325
v 52.625694 234.964355 -358.221588
v 42.364227 234.964355 -358.221588
v 74.601547 200.800949 -354.373535
v 82.297653 200.800949 -354.373535
v 74.601547 269.127747 -354.373535
v 82.297653 269.127747 -354.373535
v 74.601547 269.127747 -362.069641
v 82.297653 269.127747 -362.069641
v 74.601547 200.800949 -362.069641
v 82.297653 200.800949 -362.069641
v 83.580330 200.800949 -358.221588
v 83.580330 269.127747 -358.221588
v 73.318871 200.800949 -358.221588
v 73.318871 269.127747 -358.221588
v 78.449600 200.800949 -353.090851
v 82.297653 234.964355 -354.373535
v 78.449600 269.127747 -353.090851
v 74.601547 234.964355 -354.373535
v 78.449600 269.127747 -363.352325
v 82.297653 234.964355 -362.069641
v 78.449600 200.800949 -363.352325
v 74.601547 234.964355 -362.069641
v 78.449600 234.964355 -353.090851
v 78.449600 234.964355 -363.352325
v 83.580330 234.964355 -358.221588
v 73.318871 234.964355 -358.221588
v -359.317719 63.838654 129.944443
v -233.987961 63.838654 129.944443
v -359.317719 84.430916 129.944443
v -233.987961 84.430916 129.944443
v -359.317719 84.430916 -129.944443
v -233.987961 84.430916 -129.944443
v -359.317719 63.838654 -129.944443
v -233.987961 63.838654 -129.944443
v -254.027435 83.779564 122.671150
v -242.033401 83.779564 122.671150
v -254.027435 95.773567 122.671150
v -242.033401 95.773567 122.671150
v -254.027435 95.773567 110.677155
v -242.033401 95.773567 110.677155
v -254.027435 83.779564 110.677155
v -242.033401 83.779564 110.677155
v -254.027435 83.779564 -109.285286
v -242.033401 83.779564 -109.285286
v -254.027435 95.773567 -109.285286
v -242.033401 95.773567 -109.285286
v -254.027435 95.773567 -121.279289
v -242.033401 95.773567 -121.279289
v -254.027435 83.779564 -121.279289
v -242.033401 83.779564 -121.279289
v -357.893829 191.536179 -109.285286
v -357.893829 179.542175 -109.285286
v -345.899811 191.536194 -109.285286
v -345.899841 179.542191 -109.285286
v -345.899811 191.536194 -121.279289
v -345.899841 179.542191 -121.279289
v -357.893829 191.536179 -121.279289
v -357.893829 179.542175 -121.279289
v -357.893829 191.536179 122.671150
v -357.893829 179.542175 122.671150
v -345.899811 191.536194 122.671150
v -345.899841 179.542191 122.671150
v -345.899811 191.536194 110.677155
v -345.899841 179.542191 110.677155
v -357.893829 191.536179 110.677155
v -357.893829 179.542175 110.677155
v -246.707733 92.246529 118.705070
v -244.308441 94.870094 118.705070
v -352.580566 188.326950 118.705070
v -350.181244 190.950531 118.705070
v -352.580566 188.326950 115.149834
v -350.181244 190.950531 115.149834
v -246.707733 92.246529 115.149834
v -244.308441 94.870094 115.149834
v -243.908554 95.307358 116.927452
v -349.781372 191.387787 116.927452
v -247.107605 91.809265 116.927452
v -352.980438 187.889694 116.927452
v -245.508087 93.558311 119.297607
v -297.060181 143.112228 118.705070
v -351.380890 189.638733 119.297607
v -299.459473 140.488663 118.705070
v -351.380890 189.638733 114.557289
v -297.060181 143.112228 115.149834
v -245.508087 93.558311 114.557289
v -299.459473 140.488663 115.149834
v -298.259827 141.800446 119.297607
v -298.259827 141.800446 114.557289
v -296.660309 143.549484 116.927452
v -299.859344 140.051392 116.927452
v -273.083588 116.367584 118.705070
v -273.483459 115.930328 116.927452
v -273.083588 116.367584 115.149834
v -271.883942 117.679375 114.557289
v -270.684326 118.991158 115.149834
v -270.284454 119.428421 116.927452
v -270.684326 118.991158 118.705070
v -271.883942 117.679375 119.297607
v -325.835358 164.609711 118.705070
v -326.235229 164.172455 116.927452
v -325.835358 164.609711 115.149834
v -324.635712 165.921509 114.557289
v -323.436066 167.233292 115.149834
v -323.036194 167.670547 116.927452
v -323.436066 167.233292 118.705070
v -324.635712 165.921509 119.297607
v -246.707733 92.246529 -113.332283
v -244.308441 94.870094 -113.332283
v -352.580566 188.326950 -113.332283
v -350.181244 190.950531 -113.332283
v -352.580566 188.326950 -116.887520
v -350.181244 190.950531 -116.887520
v -246.707733 92.246529 -116.887520
v -244.308441 94.870094 -116.887520
v -243.908554 95.307358 -115.109901
v -349.781372 191.387787 -115.109901
v -247.107605 91.809265 -115.109901
v -352.980438 187.889694 -115.109901
v -245.508087 93.558311 -112.739746
v -297.060181 143.112228 -113.332283
v -351.380890 189.638733 -112.739746
v -299.459473 140.488663 -113.332283
v -351.380890 189.638733 -117.480057
v -297.060181 143.112228 -116.887520
v -245.508087 93.558311 -117.480057
v -299.459473 140.488663 -116.887520
v -298.259827 141.800446 -112.739746
v -298.259827 141.800446 -117.480057
v -296.660309 143.549484 -115.109901
v -299.859344 140.051392 -115.109901
v -273.083588 116.367584 -113.332283
v -273.483459 115.930328 -115.109901
v -273.083588 116.367584 -116.887520
v -271.883942 117.679375 -117.480057
v -270.684326 118.991158 -116.887520
v -270.284454 119.428421 -115.109901
v -270.684326 118.991158 -113.332283
v -271.883942 117.679375 -112.739746
v -325.835358 164.609711 -113.332283
v -326.235229 164.172455 -115.109901
v -325.835358 164.609711 -116.887520
v -324.635712 165.921509 -117.480057
v -323.436066 167.233292 -116.887520
v -323.036194 167.670547 -115.109901
v -323.436066 167.233292 -113.332283
v -324.635712 165.921509 -112.739746
vt 0.072297 0.554210
vt 0.245848 0.554211
vt 0.245848 0.561606
vt 0.072297 0.561605
vt 0.245847 0.735157
vt 0.072296 0.735156
vt 0.245847 0.742552
vt 0.072296 0.742551
vt 0.253243 0.561606
vt 0.253242 0.735157
vt 0.064901 0.735156
vt 0.064902 0.561605
vt 0.046200 0.949703
vt 0.046142 0.798782
vt 0.057015 0.798778
vt 0.057072 0.949698
vt 0.312176 0.798681
vt 0.312233 0.949602
vt 0.323049 0.798677
vt 0.323106 0.949598
vt 0.057011 0.787905
vt 0.312172 0.787808
vt 0.356512 0.947082
vt 0.356505 0.913940
vt 0.368444 0.913938
vt 0.368450 0.947080
vt 0.564566 0.947043
vt 0.564560 0.913901
vt 0.648610 0.913885
vt 0.648616 0.947027
vt 0.660548 0.913883
vt 0.660555 0.947025
vt 0.564535 0.781332
vt 0.564533 0.769394
vt 0.648583 0.769378
vt 0.648585 0.781316
vt 0.368437 0.880796
vt 0.356499 0.880798
vt 0.356480 0.781371
vt 0.368419 0.781369
vt 0.648604 0.880743
vt 0.564554 0.880759
vt 0.660542 0.880741
vt 0.660523 0.781314
vt 0.466508 0.947062
vt 0.466502 0.913919
vt 0.466496 0.880777
vt 0.466477 0.781351
vt 0.466475 0.769412
vt 0.368416 0.769431
vt 0.549594 0.730004
vt 0.502598 0.730002
vt 0.502599 0.715091
vt 0.549594 0.715093
vt 0.363551 0.729984
vt 0.363554 0.715073
vt 0.688640 0.729990
vt 0.688639 0.715079
vt 0.316556 0.729975
vt 0.316558 0.715065
vt 0.509910 0.707169
vt 0.541672 0.707782
vt 0.370865 0.707152
vt 0.494678 0.707779
vt 0.556903 0.707170
vt 0.680716 0.707769
vt 0.323871 0.707144
vt 0.355633 0.707761
vt 0.510487 0.677274
vt 0.542249 0.677887
vt 0.371017 0.677252
vt 0.494829 0.677878
vt 0.557048 0.677271
vt 0.680860 0.677868
vt 0.324452 0.677249
vt 0.356214 0.677866
vt 0.238189 0.371769
vt 0.079348 0.371823
vt 0.079346 0.365054
vt 0.238186 0.365001
vt 0.238242 0.530610
vt 0.079402 0.530663
vt 0.072633 0.530666
vt 0.072580 0.371825
vt 0.244957 0.371767
vt 0.245011 0.530607
vt 0.177460 0.075629
vt 0.185181 0.072262
vt 0.186939 0.081134
vt 0.176126 0.082719
vt 0.195832 0.066907
vt 0.197969 0.077069
vt 0.198285 0.092171
vt 0.185477 0.094824
vt 0.172855 0.095163
vt 0.210670 0.062896
vt 0.210570 0.073939
vt 0.222983 0.069024
vt 0.222509 0.077359
vt 0.222545 0.092332
vt 0.210650 0.090241
vt 0.210037 0.110110
vt 0.196694 0.111344
vt 0.222958 0.110962
vt 0.222834 0.131091
vt 0.209233 0.130676
vt 0.195057 0.131394
vt 0.182264 0.112258
vt 0.167923 0.111076
vt 0.179330 0.131642
vt 0.163001 0.129841
vt 0.103010 0.091361
vt 0.093846 0.076522
vt 0.110476 0.065540
vt 0.118040 0.078740
vt 0.086551 0.060912
vt 0.104507 0.050977
vt 0.122226 0.042408
vt 0.125682 0.056021
vt 0.130924 0.068068
vt 0.080175 0.046238
vt 0.099282 0.036751
vt 0.298584 0.122012
vt 0.284105 0.125315
vt 0.280398 0.105495
vt 0.294712 0.101771
vt 0.276379 0.087607
vt 0.289376 0.082510
vt 0.118867 0.028475
vt 0.137321 0.025394
vt 0.137759 0.038462
vt 0.271598 0.074042
vt 0.282205 0.067715
vt 0.267973 0.066818
vt 0.273827 0.059911
vt 0.151313 0.026585
vt 0.148839 0.037870
vt 0.138456 0.050047
vt 0.141493 0.060522
vt 0.147918 0.048747
vt 0.147801 0.056767
vt 0.157816 0.051976
vt 0.153958 0.061329
vt 0.161632 0.040488
vt 0.176264 0.047061
vt 0.168429 0.058092
vt 0.162188 0.067027
vt 0.167034 0.029135
vt 0.258491 0.067215
vt 0.260911 0.056674
vt 0.246074 0.067933
vt 0.244840 0.056133
vt 0.183522 0.036328
vt 0.197459 0.048423
vt 0.189038 0.057208
vt 0.233292 0.068595
vt 0.228066 0.058307
vt 0.178544 0.064953
vt 0.170825 0.072037
vt 0.234741 0.078490
vt 0.247342 0.077937
vt 0.249224 0.092484
vt 0.235435 0.093094
vt 0.259820 0.076796
vt 0.263110 0.090748
vt 0.266205 0.108617
vt 0.251330 0.110827
vt 0.269113 0.128627
vt 0.253029 0.130696
vt 0.236574 0.111421
vt 0.237219 0.131396
vt 0.148247 0.068456
vt 0.156944 0.074676
vt 0.149292 0.086019
vt 0.138984 0.077986
vt 0.166188 0.079941
vt 0.160775 0.092040
vt 0.153698 0.107435
vt 0.139679 0.100583
vt 0.146293 0.125183
vt 0.129553 0.116831
vt 0.127554 0.090529
vt 0.114720 0.105019
vt 0.517099 0.150045
vt 0.649879 0.150061
vt 0.649877 0.171877
vt 0.517096 0.171861
vt 0.649861 0.304658
vt 0.925216 0.171911
vt 0.925200 0.304692
vt 1.057997 0.171927
vt 0.925219 0.150094
vt 1.058000 0.150110
vt 0.649896 0.017280
vt 0.925235 0.017314
vt 0.405227 0.097027
vt 0.428719 0.097045
vt 0.428702 0.120538
vt 0.405209 0.120520
vt 0.428684 0.144030
vt 0.405191 0.144012
vt 0.428666 0.167522
vt 0.405174 0.167504
vt 0.452194 0.120555
vt 0.452176 0.144048
vt 0.381699 0.143994
vt 0.381717 0.120502
vt 0.405215 0.097032
vt 0.428707 0.097041
vt 0.428697 0.120533
vt 0.405205 0.120524
vt 0.428688 0.144026
vt 0.405196 0.144016
vt 0.428679 0.167518
vt 0.405186 0.167508
vt 0.452190 0.120543
vt 0.452180 0.144035
vt 0.381703 0.144007
vt 0.381713 0.120515
vt 0.381701 0.143999
vt 0.381715 0.120507
vt 0.405208 0.120521
vt 0.405193 0.144014
vt 0.428700 0.120536
vt 0.428686 0.144028
vt 0.452192 0.120550
vt 0.452178 0.144042
vt 0.405222 0.097029
vt 0.428714 0.097044
vt 0.428671 0.167520
vt 0.405179 0.167506
vt 0.405226 0.097028
vt 0.428719 0.097045
vt 0.428701 0.120537
vt 0.405209 0.120520
vt 0.428684 0.144029
vt 0.405192 0.144012
vt 0.428667 0.167522
vt 0.405175 0.167505
vt 0.452193 0.120555
vt 0.452176 0.144047
vt 0.381700 0.143995
vt 0.381717 0.120503
vt 0.872240 0.382521
vt 0.875680 0.382521
vt 0.875668 0.448125
vt 0.872228 0.448125
vt 0.848165 0.382516
vt 0.851605 0.382517
vt 0.851593 0.448121
vt 0.848153 0.448120
vt 0.848141 0.513724
vt 0.851580 0.513725
vt 0.851570 0.579304
vt 0.848131 0.579329
vt 0.872216 0.513730
vt 0.875655 0.513730
vt 0.875645 0.579334
vt 0.872205 0.579358
vt 0.865325 0.579357
vt 0.861885 0.579331
vt 0.861899 0.513727
vt 0.865338 0.513728
vt 0.858447 0.579305
vt 0.858459 0.513726
vt 0.861911 0.448123
vt 0.858471 0.448122
vt 0.858483 0.382518
vt 0.861923 0.382519
vt 0.865350 0.448124
vt 0.865362 0.382519
vt 0.855044 0.382517
vt 0.855032 0.448122
vt 0.855020 0.513725
vt 0.855008 0.579297
vt 0.868801 0.382520
vt 0.868789 0.448124
vt 0.868777 0.513729
vt 0.868765 0.579366
vt 0.872191 0.644993
vt 0.868752 0.645009
vt 0.865314 0.644992
vt 0.861876 0.644942
vt 0.858437 0.644892
vt 0.854997 0.644875
vt 0.851557 0.644891
vt 0.848118 0.644940
vt 0.875629 0.644944
vt 0.872166 0.381879
vt 0.875588 0.381879
vt 0.875588 0.447802
vt 0.872166 0.447802
vt 0.848208 0.381879
vt 0.851630 0.381879
vt 0.851630 0.447803
vt 0.848208 0.447803
vt 0.848207 0.513726
vt 0.851630 0.513726
vt 0.851632 0.579625
vt 0.848209 0.579650
vt 0.872166 0.513727
vt 0.875588 0.513727
vt 0.875590 0.579650
vt 0.872167 0.579675
vt 0.865320 0.579675
vt 0.861898 0.579650
vt 0.861899 0.513726
vt 0.865321 0.513726
vt 0.858475 0.579625
vt 0.858476 0.513726
vt 0.861898 0.447803
vt 0.858476 0.447803
vt 0.858475 0.381879
vt 0.861898 0.381879
vt 0.865321 0.447802
vt 0.865321 0.381879
vt 0.855053 0.381879
vt 0.855053 0.447803
vt 0.855053 0.513726
vt 0.855054 0.579616
vt 0.868743 0.381879
vt 0.868743 0.447802
vt 0.868744 0.513727
vt 0.868744 0.579683
vt 0.872165 0.645629
vt 0.868743 0.645646
vt 0.865322 0.645630
vt 0.861900 0.645580
vt 0.858478 0.645531
vt 0.855054 0.645514
vt 0.851631 0.645531
vt 0.848209 0.645581
vt 0.875586 0.645579
vt 0.487108 0.548934
vt 0.475757 0.548932
vt 0.475774 0.453327
vt 0.487125 0.453329
vt 0.464405 0.548930
vt 0.464422 0.453325
vt 0.464439 0.357719
vt 0.475791 0.357721
vt 0.487142 0.357723
vt 0.509844 0.357727
vt 0.521195 0.357729
vt 0.430369 0.453318
vt 0.509827 0.453333
vt 0.441737 0.357715
vt 0.441720 0.453321
vt 0.441703 0.548926
vt 0.430352 0.548924
vt 0.509810 0.548938
vt 0.453054 0.548928
vt 0.453071 0.453322
vt 0.453088 0.357717
vt 0.498459 0.548936
vt 0.498476 0.453331
vt 0.498493 0.357725
vt 0.487103 0.548865
vt 0.475760 0.548863
vt 0.475774 0.453327
vt 0.487117 0.453328
vt 0.464417 0.548862
vt 0.464431 0.453325
vt 0.464444 0.357788
vt 0.475787 0.357790
vt 0.487130 0.357791
vt 0.509816 0.357795
vt 0.521159 0.357796
vt 0.430402 0.453320
vt 0.509803 0.453331
vt 0.441758 0.357785
vt 0.441745 0.453322
vt 0.441731 0.548859
vt 0.430388 0.548857
vt 0.509789 0.548868
vt 0.453074 0.548860
vt 0.453088 0.453323
vt 0.453101 0.357787
vt 0.498446 0.548866
vt 0.498460 0.453330
vt 0.498473 0.357793
vt 0.487146 0.549074
vt 0.475778 0.549074
vt 0.475774 0.453327
vt 0.487142 0.453326
vt 0.464410 0.549075
vt 0.464406 0.453327
vt 0.464401 0.357580
vt 0.475769 0.357579
vt 0.487137 0.357578
vt 0.509873 0.357577
vt 0.521241 0.357577
vt 0.430301 0.453329
vt 0.509878 0.453325
vt 0.441665 0.357581
vt 0.441669 0.453328
vt 0.441674 0.549076
vt 0.430306 0.549076
vt 0.509883 0.549073
vt 0.453042 0.549075
vt 0.453038 0.453328
vt 0.453033 0.357580
vt 0.498515 0.549073
vt 0.498510 0.453325
vt 0.498505 0.357578
vt 0.487187 0.549311
vt 0.475791 0.549313
vt 0.475774 0.453327
vt 0.487170 0.453325
vt 0.464394 0.549315
vt 0.464377 0.453329
vt 0.464360 0.357343
vt 0.475757 0.357341
vt 0.487153 0.357338
vt 0.509946 0.357334
vt 0.521342 0.357332
vt 0.430188 0.453335
vt 0.509963 0.453321
vt 0.441568 0.357347
vt 0.441584 0.453333
vt 0.441601 0.549319
vt 0.430205 0.549321
vt 0.509980 0.549307
vt 0.452998 0.549317
vt 0.452981 0.453331
vt 0.452964 0.357345
vt 0.498583 0.549309
vt 0.498566 0.453322
vt 0.498549 0.357336
vt 0.487114 0.548791
vt 0.475780 0.548792
vt 0.475774 0.453327
vt 0.487108 0.453326
vt 0.464445 0.548793
vt 0.464439 0.453327
vt 0.464433 0.357862
vt 0.475767 0.357861
vt 0.487102 0.357860
vt 0.509771 0.357859
vt 0.521106 0.357858
vt 0.430435 0.453330
vt 0.509777 0.453324
vt 0.441764 0.357863
vt 0.441770 0.453329
vt 0.441776 0.548794
vt 0.430442 0.548795
vt 0.509784 0.548790
vt 0.453111 0.548793
vt 0.453105 0.453328
vt 0.453098 0.357863
vt 0.498449 0.548791
vt 0.498443 0.453325
vt 0.498436 0.357860
vt 0.487110 0.548696
vt 0.475787 0.548697
vt 0.475774 0.453327
vt 0.487097 0.453325
vt 0.464463 0.548699
vt 0.464450 0.453328
vt 0.464437 0.357957
vt 0.475760 0.357956
vt 0.487084 0.357954
vt 0.509731 0.357951
vt 0.521054 0.357949
vt 0.430480 0.453333
vt 0.509744 0.453322
vt 0.441790 0.357960
vt 0.441804 0.453331
vt 0.441817 0.548702
vt 0.430493 0.548704
vt 0.509757 0.548693
vt 0.453140 0.548701
vt 0.453127 0.453330
vt 0.453114 0.357959
vt 0.498433 0.548694
vt 0.498420 0.453323
vt 0.498407 0.357953
vt 0.521080 0.548691
vt 0.521067 0.453320
vt 0.430467 0.357962
vt 0.521118 0.548789
vt 0.521112 0.453324
vt 0.430429 0.357864
vt 0.521376 0.549305
vt 0.521359 0.453319
vt 0.430171 0.357349
vt 0.521251 0.549072
vt 0.521246 0.453324
vt 0.430297 0.357581
vt 0.521132 0.548870
vt 0.521146 0.453333
vt 0.430415 0.357784
vt 0.521162 0.548940
vt 0.521178 0.453335
vt 0.430386 0.357713
vn 0.000000 0.000000 1.000000
vn 0.000000 0.000000 1.000000
vn 0.000000 0.000000 1.000000
vn 0.000000 0.000000 1.000000
vn 0.000000 1.000000 0.000000
vn 0.000000 1.000000 0.000000
vn 0.000000 1.000000 0.000000
vn 0.000000 1.000000 0.000000
vn 0.000000 0.000000 -1.000000
vn 0.000000 0.000000 -1.000000
vn 0.000000 0.000000 -1.000000
vn 0.000000 0.000000 -1.000000
vn 0.000000 -1.000000 0.000000
vn 0.000000 -1.000000 0.000000
vn 0.000000 -1.000000 0.000000
vn 0.000000 -1.000000 0.000000
vn 1.000000 0.000000 0.000000
vn 1.000000 0.000000 0.000000
vn 1.000000 0.000000 0.000000
vn 1.000000 0.000000 0.000000
vn -1.000000 0.000000 0.000000
vn -1.000000 0.000000 0.000000
vn -1.000000 0.000000 0.000000
vn -1.000000 0.000000 0.000000
vn 0.000000 0.000000 1.000000
vn 0.000000 0.000000 1.000000
vn 0.000000 0.000000 1.000000
vn 0.000000 0.000000 1.000000
vn 0.000000 1.000000 0.000000
vn 0.000000 1.000000 0.000000
vn 0.000000 1.000000 0.000000
vn 0.000000 1.000000 0.000000
vn 0.000000 0.000000 -1.000000
vn 0.000000 0.000000 -1.000000
vn 0.000000 0.000000 -1.000000
vn 0.000000 0.000000 -1.000000
vn 1.000000 0.000000 0.000000
vn 1.000000 0.000000 0.000000
vn 1.000000 0.000000 0.000000
vn 1.000000 0.000000 0.000000
vn -1.000000 0.000000 0.000000
vn -1.000000 0.000000 0.000000
vn -1.000000 0.000000 0.000000
vn -1.000000 0.000000 0.000000
vn 0.000000 0.000000 1.000000
vn 0.000000 0.000000 1.000000
vn 0.000000 0.000000 1.000000
vn 0.000000 0.000000 1.000000
vn 1.000000 -0.000000 0.000000
vn 1.000000 -0.000000 0.000000
vn 1.000000 -0.000000 0.000000
vn 1.000000 -0.000000 0.000000
vn 0.000000 0.000000 -1.000000
vn 0.000000 0.000000 -1.000000
vn 0.000000 0.000000 -1.000000
vn 0.000000 0.000000 -1.000000
vn 0.000000 -1.000000 0.000000
vn 0.000000 -1.000000 0.000000
vn 0.000000 -1.000000 0.000000
vn 0.000000 -1.000000 0.000000
vn -1.000000 0.000000 0.000000
vn -1.000000 0.000000 0.000000
vn -1.000000 0.000000 0.000000
vn -1.000000 0.000000 0.000000
vn 0.000000 0.000000 1.000000
vn 0.000000 0.000000 1.000000
vn 0.000000 0.000000 1.000000
vn 0.000000 0.000000 1.000000
vn 1.000000 0.000000 0.000000
vn 1.000000 0.000000 0.000000
vn 1.000000 0.000000 0.000000
vn 1.000000 0.000000 0.000000
vn 0.000000 -1.000000 0.000000
vn 0.000000 -1.000000 0.000000
vn 0.000000 -1.000000 0.000000
vn 0.000000 -1.000000 0.000000
vn -1.000000 0.000000 0.000000
vn -1.000000 0.000000 0.000000
vn -1.000000 0.000000 0.000000
vn -1.000000 0.000000 0.000000
vn 0.000000 0.000000 1.000000
vn 0.000000 0.000000 1.000000
vn 0.000000 0.000000 1.000000
vn 0.000000 0.000000 1.000000
vn 1.000000 0.000000 0.000000
vn 1.000000 0.000000 0.000000
vn 1.000000 0.000000 0.000000
vn 1.000000 0.000000 0.000000
vn 0.000000 0.000000 1.000000
vn 0.000000 0.000000 1.000000
vn 0.000000 0.000000 1.000000
vn 0.000000 0.000000 1.000000
vn 0.000000 -1.000000 0.000000
vn 0.000000 -1.000000 0.000000
vn 0.000000 0.000000 1.000000
vn 0.000000 0.000000 1.000000
vn 0.000000 0.000000 1.000000
vn 0.000000 0.000000 1.000000
vn 0.000000 -1.000000 0.000000
vn 0.000000 -1.000000 0.000000
vn 1.000000 0.000000 0.000000
vn 1.000000 0.000000 0.000000
vn 1.000000 0.000000 0.000000
vn 1.000000 0.000000 0.000000
vn 0.000000 1.000000 0.000000
vn 0.000000 1.000000 0.000000
vn 0.000000 1.000000 0.000000
vn 0.000000 1.000000 0.000000
vn 0.000000 -1.000000 0.000000
vn 0.000000 -1.000000 0.000000
vn 0.000000 -1.000000 0.000000
vn 0.000000 -1.000000 0.000000
vn -1.000000 0.000000 0.000000
vn -1.000000 0.000000 0.000000
vn -1.000000 0.000000 0.000000
vn -1.000000 0.000000 0.000000
vn 0.000000 0.000000 1.000000
vn 0.000000 0.000001 1.000000
vn 0.000000 0.000001 1.000000
vn 0.000000 0.000000 1.000000
vn 0.000000 0.000001 1.000000
vn 0.000000 0.000001 1.000000
vn 0.000000 -0.000000 1.000000
vn 0.000000 -0.000000 1.000000
vn -0.999815 -0.019230 0.000000
vn -0.999815 -0.019230 0.000000
vn -0.999815 -0.019230 0.000000
vn -0.999815 -0.019230 0.000000
vn 0.004934 -0.999988 0.000000
vn 0.004934 -0.999988 0.000000
vn 0.004934 -0.999988 0.000000
vn 0.004934 -0.999988 0.000000
vn -0.004934 0.999988 -0.000000
vn -0.004934 0.999988 -0.000000
vn -0.004934 0.999988 -0.000000
vn -0.004934 0.999988 -0.000000
vn 0.999815 0.019231 -0.000000
vn 0.999815 0.019231 -0.000000
vn 0.999815 0.019231 -0.000000
vn 0.999815 0.019231 -0.000000
vn 0.000000 0.000000 1.000000
vn 0.000000 0.000000 1.000000
vn 0.000000 0.000000 1.000000
vn 0.000000 0.000000 1.000000
vn 0.000000 -1.000000 0.000000
vn 0.000000 -1.000000 0.000000
vn 0.000000 -1.000000 0.000000
vn 0.000000 -1.000000 0.000000
vn 1.000000 0.000000 0.000000
vn 1.000000 0.000000 0.000000
vn 1.000000 0.000000 0.000000
vn 1.000000 0.000000 0.000000
vn -1.000000 0.000000 0.000000
vn -1.000000 0.000000 0.000000
vn -1.000000 0.000000 0.000000
vn -1.000000 0.000000 0.000000
vn -0.456229 -0.763776 0.456620
vn -0.215915 -0.858380 0.465365
vn -0.319068 -0.401385 0.858537
vn -0.653903 -0.380340 0.654028
vn 0.000226 -0.880649 0.473769
vn 0.000122 -0.420227 0.907419
vn 0.000033 -0.140607 0.990066
vn -0.341214 -0.143814 0.928919
vn -0.699295 -0.147801 0.699386
vn 0.216355 -0.858269 0.465365
vn 0.319311 -0.401135 0.858563
vn 0.456622 -0.763541 0.456619
vn 0.654177 -0.379807 0.654063
vn 0.699390 -0.147227 0.699413
vn 0.341283 -0.143534 0.928937
vn 0.341661 -0.031324 0.939301
vn 0.000011 -0.030775 0.999526
vn 0.706753 -0.032092 0.706732
vn 0.707045 0.000028 0.707168
vn 0.341700 -0.000210 0.939809
vn -0.000016 -0.000373 1.000000
vn -0.341637 -0.031589 0.939301
vn -0.706727 -0.032642 0.706733
vn -0.341731 -0.000491 0.939798
vn -0.707069 -0.000554 0.707145
vn -0.707166 -0.000027 -0.707047
vn -0.341785 0.000207 -0.939778
vn -0.341638 -0.031065 -0.939318
vn -0.706726 -0.032246 -0.706752
vn -0.000018 0.000370 -1.000000
vn 0.000010 -0.030221 -0.999543
vn 0.000031 -0.139892 -0.990167
vn -0.341253 -0.143141 -0.929009
vn -0.699404 -0.147293 -0.699385
vn 0.341751 0.000489 -0.939790
vn 0.341662 -0.030800 -0.939318
vn 0.707144 0.000553 -0.707069
vn 0.706754 -0.031697 -0.706749
vn 0.699500 -0.146719 -0.699409
vn 0.341322 -0.142861 -0.929027
vn 0.319369 -0.400624 -0.858780
vn 0.000122 -0.419768 -0.907631
vn 0.654318 -0.379349 -0.654189
vn 0.456621 -0.763775 -0.456229
vn 0.216356 -0.858507 -0.464926
vn 0.000226 -0.880891 -0.473319
vn -0.319126 -0.400874 -0.858754
vn -0.654041 -0.379883 -0.654155
vn -0.215914 -0.858618 -0.464926
vn -0.456226 -0.764011 -0.456230
vn -0.107408 -0.988396 -0.107409
vn -0.464923 -0.858619 -0.215915
vn 0.000256 -0.997036 -0.076935
vn 0.000257 -1.000000 0.000256
vn -0.076934 -0.997036 0.000255
vn -0.473318 -0.880892 0.000225
vn 0.107916 -0.988341 -0.107409
vn 0.465365 -0.858380 -0.215914
vn 0.473769 -0.880649 0.000225
vn 0.077446 -0.996997 0.000255
vn 0.107915 -0.988286 0.107914
vn 0.000256 -0.996997 0.077446
vn 0.465366 -0.858269 0.216354
vn -0.107408 -0.988341 0.107915
vn -0.464924 -0.858508 0.216355
vn 0.858764 -0.400757 0.319247
vn 0.907686 -0.419651 0.000046
vn 0.990174 -0.139843 0.000050
vn 0.928995 -0.143083 0.341316
vn 0.858866 -0.400575 -0.319201
vn 0.929066 -0.142829 -0.341228
vn 0.939322 -0.030734 -0.341656
vn 0.999547 -0.030111 -0.000005
vn 0.939815 0.000511 -0.341683
vn 1.000000 0.000408 0.000066
vn 0.939321 -0.030925 0.341643
vn 0.939768 0.000258 0.341813
vn -0.858554 -0.401253 -0.319188
vn -0.907364 -0.420346 0.000047
vn -0.990059 -0.140656 0.000051
vn -0.928951 -0.143592 -0.341220
vn -0.858452 -0.401434 0.319235
vn -0.928880 -0.143846 0.341308
vn -0.939296 -0.031655 0.341644
vn -0.999523 -0.030885 -0.000005
vn -0.939772 -0.000512 0.341801
vn -1.000000 -0.000410 0.000066
vn -0.939298 -0.031463 -0.341657
vn -0.939820 -0.000258 -0.341670
vn -0.707107 0.000000 0.707107
vn -0.000000 0.000000 1.000000
vn -0.000000 0.000000 1.000000
vn -0.707107 0.000000 0.707107
vn 0.707107 0.000000 0.707107
vn 0.707107 0.000000 0.707107
vn 0.707107 0.000000 0.707106
vn 0.000000 0.000000 1.000000
vn -0.707107 0.000000 0.707107
vn -0.707107 0.000000 -0.707107
vn -0.000000 0.000000 -1.000000
vn -0.000000 0.000000 -1.000000
vn -0.707108 0.000000 -0.707106
vn 0.707107 0.000000 -0.707106
vn 0.707108 0.000000 -0.707106
vn 0.707109 0.000000 -0.707105
vn -0.000000 0.000000 -1.000000
vn -0.707109 0.000000 -0.707105
vn 1.000000 0.000000 0.000000
vn 1.000000 0.000000 0.000000
vn 1.000000 0.000000 0.000000
vn -1.000000 0.000000 0.000000
vn -1.000000 0.000000 0.000000
vn -1.000000 0.000000 0.000000
vn -0.707106 0.000000 0.707107
vn -0.000000 0.000000 1.000000
vn -0.000000 0.000000 1.000000
vn -0.707106 0.000000 0.707107
vn 0.707107 0.000000 0.707107
vn 0.707107 0.000000 0.707107
vn 0.707107 0.000000 0.707106
vn 0.000000 0.000000 1.000000
vn -0.707107 0.000000 0.707107
vn -0.707107 0.000000 -0.707107
vn -0.000000 0.000000 -1.000000
vn -0.000000 0.000000 -1.000000
vn -0.707107 0.000000 -0.707106
vn 0.707107 0.000000 -0.707106
vn 0.707108 0.000000 -0.707106
vn 0.707109 0.000000 -0.707105
vn -0.000000 0.000000 -1.000000
vn -0.707108 0.000000 -0.707105
vn 1.000000 0.000000 0.000000
vn 1.000000 0.000000 0.000000
vn 1.000000 0.000000 0.000000
vn -1.000000 0.000000 0.000000
vn -1.000000 0.000000 0.000000
vn -1.000000 0.000000 0.000000
vn -0.707107 0.000000 0.707107
vn 0.000000 0.000000 1.000000
vn -0.000000 0.000000 1.000000
vn -0.707107 0.000000 0.707107
vn 0.707107 0.000000 0.707107
vn 0.707107 0.000000 0.707107
vn 0.707107 0.000000 0.707107
vn -0.000000 0.000000 1.000000
vn -0.707107 0.000000 0.707107
vn -0.707107 0.000000 -0.707107
vn 0.000000 0.000000 -1.000000
vn 0.000000 0.000000 -1.000000
vn -0.707108 0.000000 -0.707106
vn 0.707107 0.000000 -0.707107
vn 0.707108 0.000000 -0.707106
vn 0.707108 0.000000 -0.707105
vn 0.000000 0.000000 -1.000000
vn -0.707108 0.000000 -0.707105
vn 1.000000 0.000000 0.000000
vn 1.000000 0.000000 0.000000
vn 1.000000 0.000000 0.000000
vn -1.000000 0.000000 0.000000
vn -1.000000 0.000000 0.000000
vn -1.000000 0.000000 0.000000
vn -0.707107 0.000000 0.707107
vn 0.000000 0.000000 1.000000
vn 0.000000 0.000000 1.000000
vn -0.707107 0.000000 0.707107
vn 0.707107 0.000000 0.707107
vn 0.707107 0.000000 0.707107
vn 0.707107 0.000000 0.707107
vn 0.000000 0.000000 1.000000
vn -0.707107 0.000000 0.707107
vn -0.707107 0.000000 -0.707107
vn 0.000000 0.000000 -1.000000
vn 0.000000 0.000000 -1.000000
vn -0.707108 0.000000 -0.707106
vn 0.707107 0.000000 -0.707107
vn 0.707108 0.000000 -0.707106
vn 0.707109 0.000000 -0.707105
vn 0.000000 0.000000 -1.000000
vn -0.707109 0.000000 -0.707105
vn 1.000000 0.000000 0.000000
vn 1.000000 0.000000 0.000000
vn 1.000000 0.000000 0.000000
vn -1.000000 0.000000 0.000000
vn -1.000000 0.000000 0.000000
vn -1.000000 0.000000 0.000000
vn -0.707106 0.000000 0.707107
vn 0.000000 0.000000 1.000000
vn 0.000000 0.000000 1.000000
vn -0.707107 0.000000 0.707107
vn 0.707106 0.000000 0.707107
vn 0.707107 0.000000 0.707107
vn 0.707107 0.000000 0.707107
vn 0.000000 0.000000 1.000000
vn -0.707107 0.000000 0.707107
vn -0.707107 0.000000 -0.707107
vn 0.000000 0.000000 -1.000000
vn 0.000000 0.000000 -1.000000
vn -0.707108 0.000000 -0.707106
vn 0.707107 0.000000 -0.707107
vn 0.707108 0.000000 -0.707106
vn 0.707108 0.000000 -0.707105
vn 0.000000 0.000000 -1.000000
vn -0.707108 0.000000 -0.707105
vn 1.000000 0.000000 0.000000
vn 1.000000 0.000000 0.000000
vn 1.000000 0.000000 0.000000
vn -1.000000 0.000000 0.000000
vn -1.000000 0.000000 0.000000
vn -1.000000 0.000000 0.000000
vn -0.707107 0.000000 0.707107
vn 0.000000 0.000000 1.000000
vn 0.000000 0.000000 1.000000
vn -0.707107 0.000000 0.707107
vn 0.707107 0.000000 0.707107
vn 0.707107 0.000000 0.707107
vn 0.707107 0.000000 0.707107
vn 0.000000 0.000000 1.000000
vn -0.707107 0.000000 0.707107
vn -0.707107 0.000000 -0.707107
vn 0.000000 0.000000 -1.000000
vn 0.000000 0.000000 -1.000000
vn -0.707108 0.000000 -0.707106
vn 0.707107 0.000000 -0.707107
vn 0.707108 0.000000 -0.707106
vn 0.707109 0.000000 -0.707105
vn 0.000000 0.000000 -1.000000
vn -0.707109 0.000000 -0.707105
vn 1.000000 0.000000 0.000000
vn 1.000000 0.000000 0.000000
vn 1.000000 0.000000 0.000000
vn -1.000000 0.000000 0.000000
vn -1.000000 0.000000 0.000000
vn -1.000000 0.000000 0.000000
vn 0.000000 0.000000 1.000000
vn 0.000000 0.000000 1.000000
vn 0.000000 0.000000 1.000000
vn 0.000000 0.000000 1.000000
vn 0.000000 1.000000 0.000000
vn 0.000000 1.000000 0.000000
vn 0.000000 1.000000 0.000000
vn 0.000000 1.000000 0.000000
vn 0.000000 0.000000 -1.000000
vn 0.000000 0.000000 -1.000000
vn 0.000000 0.000000 -1.000000
vn 0.000000 0.000000 -1.000000
vn 1.000000 0.000000 0.000000
vn 1.000000 0.000000 0.000000
vn 1.000000 0.000000 0.000000
vn 1.000000 0.000000 0.000000
vn 0.000000 -1.000000 0.000000
vn 0.000000 -1.000000 0.000000
vn 0.000000 -1.000000 0.000000
vn 0.000000 -1.000000 0.000000
vn 0.000000 0.000000 1.000000
vn 0.000000 0.000000 1.000000
vn 0.000000 0.000000 1.000000
vn 0.000000 0.000000 1.000000
vn 0.000000 1.000000 0.000000
vn 0.000000 1.000000 0.000000
vn 0.000000 1.000000 0.000000
vn 0.000000 1.000000 0.000000
vn 0.000000 0.000000 -1.000000
vn 0.000000 0.000000 -1.000000
vn 0.000000 0.000000 -1.000000
vn 0.000000 0.000000 -1.000000
vn 1.000000 0.000000 0.000000
vn 1.000000 0.000000 0.000000
vn 1.000000 0.000000 0.000000
vn 1.000000 0.000000 0.000000
vn -1.000000 0.000000 0.000000
vn -1.000000 0.000000 0.000000
vn -1.000000 0.000000 0.000000
vn -1.000000 0.000000 0.000000
vn 0.000000 0.000000 1.000000
vn 0.000000 0.000000 1.000000
vn 0.000000 0.000000 1.000000
vn 0.000000 0.000000 1.000000
vn 0.000000 1.000000 0.000000
vn 0.000000 1.000000 0.000000
vn 0.000000 1.000000 0.000000
vn 0.000000 1.000000 0.000000
vn 0.000000 0.000000 -1.000000
vn 0.000000 0.000000 -1.000000
vn 0.000000 0.000000 -1.000000
vn 0.000000 0.000000 -1.000000
vn 1.000000 0.000000 0.000000
vn 1.000000 0.000000 0.000000
vn 1.000000 0.000000 0.000000
vn 1.000000 0.000000 0.000000
vn -1.000000 0.000000 0.000000
vn -1.000000 0.000000 0.000000
vn -1.000000 0.000000 0.000000
vn -1.000000 0.000000 0.000000
vn 0.000000 0.000000 1.000000
vn 0.000000 0.000000 1.000000
vn 0.000000 0.000000 1.000000
vn 0.000000 0.000000 1.000000
vn 1.000000 0.000000 0.000000
vn 1.000000 0.000000 0.000000
vn 1.000000 0.000000 0.000000
vn 1.000000 0.000000 0.000000
vn 0.000000 0.000000 -1.000000
vn 0.000000 0.000000 -1.000000
vn 0.000000 0.000000 -1.000000
vn 0.000000 0.000000 -1.000000
vn 0.000001 -1.000000 0.000000
vn 0.000001 -1.000000 0.000000
vn 0.000001 -1.000000 0.000000
vn 0.000001 -1.000000 0.000000
vn -0.000001 1.000000 0.000000
vn -0.000001 1.000000 0.000000
vn -0.000001 1.000000 0.000000
vn -0.000001 1.000000 0.000000
vn 0.000000 0.000000 1.000000
vn 0.000000 0.000000 1.000000
vn 0.000000 0.000000 1.000000
vn 0.000000 0.000000 1.000000
vn 1.000000 -0.000003 0.000000
vn 1.000000 -0.000003 0.000000
vn 1.000000 -0.000003 0.000000
vn 1.000000 -0.000003 0.000000
vn 0.000000 0.000000 -1.000000
vn 0.000000 0.000000 -1.000000
vn 0.000000 0.000000 -1.000000
vn 0.000000 0.000000 -1.000000
vn 0.000001 -1.000000 0.000000
vn 0.000001 -1.000000 0.000000
vn 0.000001 -1.000000 0.000000
vn 0.000001 -1.000000 0.000000
vn -0.000001 1.000000 0.000000
vn -0.000001 1.000000 0.000000
vn -0.000001 1.000000 0.000000
vn -0.000001 1.000000 0.000000
vn -0.477200 -0.521806 0.707106
vn -0.000002 0.000000 1.000000
vn -0.000000 -0.000000 1.000000
vn -0.477198 -0.521806 0.707108
vn 0.477199 0.521807 0.707106
vn 0.477199 0.521808 0.707105
vn 0.000001 0.000000 1.000000
vn 0.477199 0.521808 0.707105
vn 0.473927 0.526263 0.706003
vn 0.001023 0.001153 0.999999
vn -0.477197 -0.521806 0.707108
vn -0.472468 -0.524642 0.708184
vn -0.472468 -0.524643 -0.708183
vn 0.001021 0.001153 -0.999999
vn -0.000000 -0.000000 -1.000000
vn -0.477200 -0.521807 -0.707105
vn 0.473927 0.526264 -0.706003
vn 0.477201 0.521808 -0.707103
vn 0.000000 0.000000 -1.000000
vn 0.477201 0.521808 -0.707103
vn 0.477200 0.521808 -0.707104
vn -0.000002 0.000000 -1.000000
vn -0.477199 -0.521807 -0.707106
vn -0.477200 -0.521807 -0.707105
vn 0.674860 0.737946 -0.000000
vn 0.674860 0.737946 -0.000000
vn 0.674860 0.737946 0.000001
vn 0.669200 0.743082 0.000001
vn -0.674860 -0.737946 -0.000000
vn -0.674860 -0.737946 -0.000000
vn -0.674861 -0.737945 -0.000000
vn -0.669183 -0.743098 -0.000000
vn -0.470630 -0.530714 0.704876
vn -0.663484 -0.748190 -0.000000
vn -0.470628 -0.530716 -0.704876
vn -0.002046 -0.002307 -0.999995
vn 0.467738 0.527457 -0.709233
vn 0.663485 0.748190 0.000000
vn 0.467740 0.527455 0.709232
vn -0.002046 -0.002307 0.999995
vn -0.477197 -0.521807 0.707107
vn 0.000000 0.000000 1.000000
vn 0.000000 0.000000 1.000000
vn -0.477198 -0.521806 0.707107
vn 0.477199 0.521807 0.707105
vn 0.477200 0.521807 0.707105
vn 0.000000 0.000000 1.000000
vn 0.477200 0.521807 0.707105
vn 0.473927 0.526263 0.706003
vn 0.001023 0.001154 0.999999
vn -0.477199 -0.521806 0.707107
vn -0.472468 -0.524642 0.708184
vn -0.472467 -0.524642 -0.708185
vn 0.001022 0.001153 -0.999999
vn 0.000001 -0.000000 -1.000000
vn -0.477198 -0.521806 -0.707107
vn 0.473927 0.526263 -0.706004
vn 0.477200 0.521807 -0.707105
vn 0.000001 0.000000 -1.000000
vn 0.477200 0.521807 -0.707105
vn 0.477199 0.521807 -0.707105
vn 0.000000 0.000000 -1.000000
vn -0.477198 -0.521806 -0.707107
vn -0.477199 -0.521806 -0.707106
vn 0.674860 0.737946 0.000000
vn 0.674861 0.737945 0.000000
vn 0.674861 0.737945 0.000001
vn 0.669200 0.743082 0.000001
vn -0.674860 -0.737946 -0.000000
vn -0.674860 -0.737946 -0.000000
vn -0.674861 -0.737945 -0.000000
vn -0.669182 -0.743098 -0.000000
vn -0.470630 -0.530714 0.704876
vn -0.663483 -0.748191 -0.000000
vn -0.470628 -0.530715 -0.704877
vn -0.002046 -0.002307 -0.999995
vn 0.467738 0.527455 -0.709233
vn 0.663484 0.748191 0.000000
vn 0.467740 0.527455 0.709232
vn -0.002046 -0.002307 0.999995
s off
g cell
usemtl initialShadingGroup
f 1//1 2//2 4//3 3//4
f 3//5 4//6 6//7 5//8
f 5//9 6//10 8//11 7//12
f 7//13 8//14 2//15 1//16
f 2//17 8//18 6//19 4//20
f 7//21 1//22 3//23 5//24
f 9/1/25 10/2/26 12/3/27 11/4/28
f 11/4/29 12/3/30 14/5/31 13/6/32
f 13/6/33 14/5/34 16/7/35 15/8/36
f 10/9/37 16/10/38 14/5/39 12/3/40
f 15/11/41 9/12/42 11/4/43 13/6/44
f 17/13/45 18/14/46 20/15/47 19/16/48
f 19/16/49 20/15/50 22/17/51 21/18/52
f 21/18/53 22/17/54 24/19/55 23/20/56
f 18/21/57 24/22/58 22/17/59 20/15/60
s 1
f 25/23/61 37/24/62 38/25/63 27/26/64
s 2
f 41/27/65 42/28/66 39/29/67 29/30/68
s 3
f 29/30/69 39/29/70 40/31/71 31/32/72
s 4
f 44/33/73 45/34/74 32/35/75 30/36/76
s 1
f 34/37/77 33/38/78 26/39/79 28/40/80
s 2
f 35/41/81 43/42/82 44/33/83 30/36/84
s 3
f 36/43/85 35/41/86 30/36/87 32/44/88
s 1
f 38/25/63 37/24/62 33/38/78 34/37/77
s 2
f 39/29/67 42/28/66 43/42/82 35/41/81
s 3
f 40/31/71 39/29/70 35/41/86 36/43/85
s 2
f 46/45/89 47/46/90 42/28/66 41/27/65
f 44/33/83 43/42/82 48/47/91 49/48/92
s 4
f 49/48/93 50/49/94 45/34/74 44/33/73
s 2
f 27/26/95 38/25/96 47/46/90 46/45/89
f 48/47/91 47/46/90 38/25/96 34/37/97
f 49/48/92 48/47/91 34/37/97 28/40/98
s 4
f 26/50/99 50/49/94 49/48/93 28/40/100
s off
f 43/51/101 42/52/102 51/53/103 52/54/104
f 42/52/105 47/55/106 53/56/107 51/53/108
f 48/57/109 43/51/110 52/54/111 54/58/112
f 47/55/113 48/59/114 54/60/115 53/56/116
s 5
f 52/54/117 51/53/118 55/61/119 56/62/120
f 51/53/118 53/56/121 57/63/122 55/64/119
f 54/58/123 52/54/117 56/65/120 58/66/124
f 53/56/121 54/60/123 58/67/124 57/68/122
s off
f 56/62/125 55/61/126 59/69/127 60/70/128
f 55/64/129 57/63/130 61/71/131 59/72/132
f 58/66/133 56/65/134 60/73/135 62/74/136
f 57/68/137 58/67/138 62/75/139 61/76/140
f 63/77/141 64/78/142 66/79/143 65/80/144
f 69/81/145 70/82/146 64/78/147 63/77/148
f 64/78/149 70/82/150 68/83/151 66/84/152
f 69/81/153 63/77/154 65/85/155 67/86/156
s 6
f 71/87/157 136/88/158 96/89/159 143/90/160
f 136/88/158 84/91/161 116/92/162 96/89/159
f 96/89/159 116/92/162 91/93/163 119/94/164
f 143/90/160 96/89/159 119/94/164 87/95/165
f 84/91/161 137/96/166 97/97/167 116/92/162
f 137/96/166 72/98/168 138/99/169 97/97/167
f 97/97/167 138/99/169 85/100/170 117/101/171
f 116/92/162 97/97/167 117/101/171 91/93/163
f 91/93/163 117/101/171 98/102/172 118/103/173
f 117/101/171 85/100/170 139/104/174 98/102/172
f 98/102/172 139/104/174 74/105/175 140/106/176
f 118/103/173 98/102/172 140/106/176 86/107/177
f 87/95/165 119/94/164 99/108/178 142/109/179
f 119/94/164 91/93/163 118/103/173 99/108/178
f 99/108/178 118/103/173 86/107/177 141/110/180
f 142/109/179 99/108/178 141/110/180 73/111/181
f 75/112/182 144/113/183 100/114/184 151/115/185
f 144/113/183 88/116/186 120/117/187 100/114/184
f 100/114/184 120/117/187 92/118/188 123/119/189
f 151/115/185 100/114/184 123/119/189 79/120/190
f 88/116/186 145/121/191 101/122/192 120/117/187
f 145/123/191 76/124/193 146/125/194 101/126/192
f 101/126/192 146/125/194 89/127/195 121/128/196
f 120/117/187 101/122/192 121/129/196 92/118/188
f 92/118/188 121/129/196 102/130/197 122/131/198
f 121/128/196 89/127/195 147/132/199 102/133/197
f 102/133/197 147/132/199 78/134/200 148/135/201
f 122/131/198 102/130/197 148/136/201 90/137/202
f 79/120/190 123/119/189 103/138/203 150/139/204
f 123/119/189 92/118/188 122/131/198 103/138/203
f 103/138/203 122/131/198 90/137/202 149/140/205
f 150/139/204 103/138/203 149/140/205 77/141/206
f 77/141/206 149/140/205 104/142/207 155/143/208
f 149/140/205 90/137/202 124/144/209 104/142/207
f 104/142/207 124/144/209 93/145/210 127/146/211
f 155/143/208 104/142/207 127/146/211 81/147/212
f 90/137/202 148/136/201 105/148/213 124/144/209
f 148/135/201 78/134/200 152/149/214 105/150/213
f 105/150/213 152/149/214 80/151/215 125/152/216
f 124/144/209 105/148/213 125/153/216 93/145/210
f 93/145/210 125/153/216 106/154/217 126/155/218
f 125/152/216 80/151/215 153/156/219 106/157/217
f 106/157/217 153/156/219 72/98/168 137/96/166
f 126/155/218 106/154/217 137/96/166 84/91/161
f 81/147/212 127/146/211 107/158/220 154/159/221
f 127/146/211 93/145/210 126/155/218 107/158/220
f 107/158/220 126/155/218 84/91/161 136/88/158
f 154/159/221 107/158/220 136/88/158 71/87/157
f 72/98/168 153/156/219 108/160/222 138/99/169
f 153/156/219 80/151/215 128/161/223 108/160/222
f 108/160/222 128/161/223 94/162/224 131/163/225
f 138/99/169 108/160/222 131/163/225 85/100/170
f 80/151/215 152/149/214 109/164/226 128/161/223
f 152/149/214 78/134/200 147/132/199 109/164/226
f 109/164/226 147/132/199 89/127/195 129/165/227
f 128/161/223 109/164/226 129/165/227 94/162/224
f 94/162/224 129/165/227 110/166/228 130/167/229
f 129/165/227 89/127/195 146/125/194 110/166/228
f 110/166/228 146/125/194 76/124/193 156/168/230
f 130/167/229 110/166/228 156/168/230 82/169/231
f 85/100/170 131/163/225 111/170/232 139/104/174
f 131/163/225 94/162/224 130/167/229 111/170/232
f 111/170/232 130/167/229 82/169/231 157/171/233
f 139/104/174 111/170/232 157/171/233 74/105/175
f 77/141/206 155/143/208 112/172/234 150/139/204
f 155/143/208 81/147/212 132/173/235 112/172/234
f 112/172/234 132/173/235 95/174/236 135/175/237
f 150/139/204 112/172/234 135/175/237 79/120/190
f 81/147/212 154/159/221 113/176/238 132/173/235
f 154/159/221 71/87/157 143/90/160 113/176/238
f 113/176/238 143/90/160 87/95/165 133/177/239
f 132/173/235 113/176/238 133/177/239 95/174/236
f 95/174/236 133/177/239 114/178/240 134/179/241
f 133/177/239 87/95/165 142/109/179 114/178/240
f 114/178/240 142/109/179 73/111/181 158/180/242
f 134/179/241 114/178/240 158/180/242 83/181/243
f 79/120/190 135/175/237 115/182/244 151/115/185
f 135/175/237 95/174/236 134/179/241 115/182/244
f 115/182/244 134/179/241 83/181/243 159/183/245
f 151/115/185 115/182/244 159/183/245 75/112/182
s 8
f 160/334/246 172/335/247 180/336/248 175/337/249
f 172/335/247 161/338/250 173/339/251 180/336/248
f 180/336/248 173/339/251 163/340/252 174/341/253
f 175/337/249 180/336/248 174/341/253 162/342/254
f 164/343/255 176/344/256 181/494/257 179/346/258
f 176/495/256 165/347/259 177/348/260 181/345/257
f 181/345/257 177/348/260 167/349/261 178/350/262
f 179/346/258 181/494/257 178/493/262 166/351/263
f 161/338/250 168/352/264 182/353/265 173/339/251
f 168/352/264 167/349/261 177/348/260 182/353/265
f 182/353/265 177/348/260 165/347/259 169/354/266
f 173/339/251 182/353/265 169/354/266 163/340/252
f 166/351/263 170/355/267 183/356/268 179/346/258
f 170/355/267 160/334/246 175/337/249 183/356/268
f 183/356/268 175/337/249 162/342/254 171/357/269
f 179/346/258 183/356/268 171/357/269 164/343/255
s 10
f 184/358/270 196/359/271 204/360/272 199/361/273
f 196/359/271 185/362/274 197/363/275 204/360/272
f 204/360/272 197/363/275 187/364/276 198/365/277
f 199/361/273 204/360/272 198/365/277 186/366/278
f 188/367/279 200/368/280 205/491/281 203/370/282
f 200/492/280 189/371/283 201/372/284 205/369/281
f 205/369/281 201/372/284 191/373/285 202/374/286
f 203/370/282 205/491/281 202/490/286 190/375/287
f 185/362/274 192/376/288 206/377/289 197/363/275
f 192/376/288 191/373/285 201/372/284 206/377/289
f 206/377/289 201/372/284 189/371/283 193/378/290
f 197/363/275 206/377/289 193/378/290 187/364/276
f 190/375/287 194/379/291 207/380/292 203/370/282
f 194/379/291 184/358/270 199/361/273 207/380/292
f 207/380/292 199/361/273 186/366/278 195/381/293
f 203/370/282 207/380/292 195/381/293 188/367/279
s 12
f 208/382/294 220/383/295 228/384/296 223/385/297
f 220/383/295 209/386/298 221/387/299 228/384/296
f 228/384/296 221/387/299 211/388/300 222/389/301
f 223/385/297 228/384/296 222/389/301 210/390/302
f 212/391/303 224/392/304 229/488/305 227/394/306
f 224/489/304 213/395/307 225/396/308 229/393/305
f 229/393/305 225/396/308 215/397/309 226/398/310
f 227/394/306 229/488/305 226/487/310 214/399/311
f 209/386/298 216/400/312 230/401/313 221/387/299
f 216/400/312 215/397/309 225/396/308 230/401/313
f 230/401/313 225/396/308 213/395/307 217/402/314
f 221/387/299 230/401/313 217/402/314 211/388/300
f 214/399/311 218/403/315 231/404/316 227/394/306
f 218/403/315 208/382/294 223/385/297 231/404/316
f 231/404/316 223/385/297 210/390/302 219/405/317
f 227/394/306 231/404/316 219/405/317 212/391/303
s 14
f 232/406/318 244/407/319 252/408/320 247/409/321
f 244/407/319 233/410/322 245/411/323 252/408/320
f 252/408/320 245/411/323 235/412/324 246/413/325
f 247/409/321 252/408/320 246/413/325 234/414/326
f 236/415/327 248/416/328 253/485/329 251/418/330
f 248/486/328 237/419/331 249/420/332 253/417/329
f 253/417/329 249/420/332 239/421/333 250/422/334
f 251/418/330 253/485/329 250/484/334 238/423/335
f 233/410/322 240/424/336 254/425/337 245/411/323
f 240/424/336 239/421/333 249/420/332 254/425/337
f 254/425/337 249/420/332 237/419/331 241/426/338
f 245/411/323 254/425/337 241/426/338 235/412/324
f 238/423/335 242/427/339 255/428/340 251/418/330
f 242/427/339 232/406/318 247/409/321 255/428/340
f 255/428/340 247/409/321 234/414/326 243/429/341
f 251/418/330 255/428/340 243/429/341 236/415/327
s 16
f 256/430/342 268/431/343 276/432/344 271/433/345
f 268/431/343 257/434/346 269/435/347 276/432/344
f 276/432/344 269/435/347 259/436/348 270/437/349
f 271/433/345 276/432/344 270/437/349 258/438/350
f 260/439/351 272/440/352 277/482/353 275/442/354
f 272/483/352 261/443/355 273/444/356 277/441/353
f 277/441/353 273/444/356 263/445/357 274/446/358
f 275/442/354 277/482/353 274/481/358 262/447/359
f 257/434/346 264/448/360 278/449/361 269/435/347
f 264/448/360 263/445/357 273/444/356 278/449/361
f 278/449/361 273/444/356 261/443/355 265/450/362
f 269/435/347 278/449/361 265/450/362 259/436/348
f 262/447/359 266/451/363 279/452/364 275/442/354
f 266/451/363 256/430/342 271/433/345 279/452/364
f 279/452/364 271/433/345 258/438/350 267/453/365
f 275/442/354 279/452/364 267/453/365 260/439/351
s 18
f 280/454/366 292/455/367 300/456/368 295/457/369
f 292/455/367 281/458/370 293/459/371 300/456/368
f 300/456/368 293/459/371 283/460/372 294/461/373
f 295/457/369 300/456/368 294/461/373 282/462/374
f 284/463/375 296/464/376 301/479/377 299/466/378
f 296/480/376 285/467/379 297/468/380 301/465/377
f 301/465/377 297/468/380 287/469/381 298/470/382
f 299/466/378 301/479/377 298/478/382 286/471/383
f 281/458/370 288/472/384 302/473/385 293/459/371
f 288/472/384 287/469/381 297/468/380 302/473/385
f 302/473/385 297/468/380 285/467/379 289/474/386
f 293/459/371 302/473/385 289/474/386 283/460/372
f 286/471/383 290/475/387 303/476/388 299/466/378
f 290/475/387 280/454/366 295/457/369 303/476/388
f 303/476/388 295/457/369 282/462/374 291/477/389
f 299/466/378 303/476/388 291/477/389 284/463/375
s off
f 304/184/390 305/185/391 307/186/392 306/187/393
f 306/188/394 307/186/395 309/189/396 308/190/397
f 308/191/398 309/189/399 311/192/400 310/193/401
f 305/185/402 311/192/403 309/189/404 307/186/405
f 305/185/406 304/194/407 310/195/408 311/192/409
f 312/196/410 313/197/411 315/198/412 314/199/413
f 314/199/414 315/198/415 317/200/416 316/201/417
f 316/201/418 317/200/419 319/202/420 318/203/421
f 313/204/422 319/205/423 317/200/424 315/198/425
f 318/206/426 312/207/427 314/199/428 316/201/429
f 320/208/430 321/209/431 323/210/432 322/211/433
f 322/211/434 323/210/435 325/212/436 324/213/437
f 324/213/438 325/212/439 327/214/440 326/215/441
f 321/216/442 327/217/443 325/212/444 323/210/445
f 326/218/446 320/219/447 322/211/448 324/213/449
f 328/220/450 329/221/451 331/222/452 330/223/453
f 330/223/454 331/222/455 333/224/456 332/225/457
f 332/225/458 333/224/459 335/226/460 334/227/461
f 329/228/462 335/229/463 333/224/464 331/222/465
f 334/230/466 328/231/467 330/223/468 332/225/469
f 336/232/470 337/233/471 339/234/472 338/235/473
f 338/235/474 339/234/475 341/236/476 340/237/477
f 340/237/478 341/236/479 343/238/480 342/239/481
f 337/240/482 343/241/483 341/236/484 339/234/485
f 342/242/486 336/243/487 338/235/488 340/237/489
s 20
f 344/244/490 356/245/491 375/246/492 368/247/493
f 356/248/491 345/249/494 374/250/495 375/251/492
f 364/252/496 357/253/497 382/254/498 383/255/499
f 359/256/500 364/257/496 383/258/499 376/259/501
f 378/260/502 379/261/503 365/262/504 363/263/505
f 379/261/503 380/264/506 361/265/507 365/262/504
f 371/266/508 372/267/509 351/268/510 362/269/511
f 370/270/512 371/266/508 362/269/511 350/271/513
f 345/249/494 352/272/514 373/273/515 374/250/495
f 352/272/514 351/268/510 372/267/509 373/273/515
f 366/274/516 361/265/507 380/264/506 381/275/517
f 357/253/497 366/274/516 381/275/517 382/254/498
f 350/271/513 354/276/518 369/277/519 370/270/512
f 354/276/518 344/244/490 368/247/493 369/277/519
f 367/278/520 359/256/500 376/259/501 377/279/521
f 363/263/505 367/278/520 377/279/521 378/260/502
f 369/277/519 368/247/493 359/256/500 367/278/520
f 370/270/512 369/277/519 367/278/520 363/263/505
f 363/263/505 365/262/504 371/266/508 370/270/512
f 365/262/504 361/265/507 372/267/509 371/266/508
f 373/273/515 372/267/509 361/265/507 366/274/516
f 374/250/495 373/273/515 366/274/516 357/253/497
f 375/251/492 374/250/495 357/253/497 364/252/496
f 368/247/493 375/246/492 364/257/496 359/256/500
f 377/279/521 376/259/501 346/280/522 355/281/523
f 378/260/502 377/279/521 355/281/523 348/282/524
f 348/282/524 360/283/525 379/261/503 378/260/502
f 360/283/525 349/284/526 380/264/506 379/261/503
f 381/275/517 380/264/506 349/284/526 353/285/527
f 382/254/498 381/275/517 353/285/527 347/286/528
f 383/255/499 382/254/498 347/286/528 358/287/529
f 376/259/501 383/258/499 358/288/529 346/280/522
s 22
f 384/289/530 396/290/531 415/291/532 408/292/533
f 396/293/531 385/294/534 414/295/535 415/296/532
f 404/297/536 397/298/537 422/299/538 423/300/539
f 399/301/540 404/302/536 423/303/539 416/304/541
f 418/305/542 419/306/543 405/307/544 403/308/545
f 419/306/543 420/309/546 401/310/547 405/307/544
f 411/311/548 412/312/549 391/313/550 402/314/551
f 410/315/552 411/311/548 402/314/551 390/316/553
f 385/294/534 392/317/554 413/318/555 414/295/535
f 392/317/554 391/313/550 412/312/549 413/318/555
f 406/319/556 401/310/547 420/309/546 421/320/557
f 397/298/537 406/319/556 421/320/557 422/299/538
f 390/316/553 394/321/558 409/322/559 410/315/552
f 394/321/558 384/289/530 408/292/533 409/322/559
f 407/323/560 399/301/540 416/304/541 417/324/561
f 403/308/545 407/323/560 417/324/561 418/305/542
f 409/322/559 408/292/533 399/301/540 407/323/560
f 410/315/552 409/322/559 407/323/560 403/308/545
f 403/308/545 405/307/544 411/311/548 410/315/552
f 405/307/544 401/310/547 412/312/549 411/311/548
f 413/318/555 412/312/549 401/310/547 406/319/556
f 414/295/535 413/318/555 406/319/556 397/298/537
f 415/296/532 414/295/535 397/298/537 404/297/536
f 408/292/533 415/291/532 404/302/536 399/301/540
f 417/324/561 416/304/541 386/325/562 395/326/563
f 418/305/542 417/324/561 395/326/563 388/327/564
f 388/327/564 400/328/565 419/306/543 418/305/542
f 400/328/565 389/329/566 420/309/546 419/306/543
f 421/320/557 420/309/546 389/329/566 393/330/567
f 422/299/538 421/320/557 393/330/567 387/331/568
f 423/300/539 422/299/538 387/331/568 398/332/569
f 416/304/541 423/303/539 398/333/569 386/325/562
