# This file uses centimeters as units for non-parametric coordinates.

mtllib hammer_prop.mtl
g default
v 0.231607 0.896964 -0.075254
v 0.197017 0.896964 -0.143141
v 0.143141 0.896964 -0.197017
v 0.075254 0.896964 -0.231607
v 0.000000 0.896964 -0.243527
v -0.075254 0.896964 -0.231607
v -0.143141 0.896964 -0.197017
v -0.197017 0.896964 -0.143141
v -0.231607 0.896964 -0.075254
v -0.243526 0.896964 -0.000000
v -0.231607 0.896964 0.075254
v -0.197017 0.896964 0.143141
v -0.143141 0.896964 0.197017
v -0.075254 0.896964 0.231607
v -0.000000 0.896964 0.243526
v 0.075254 0.896964 0.231607
v 0.143141 0.896964 0.197017
v 0.197017 0.896964 0.143141
v 0.231607 0.896964 0.075254
v 0.243526 0.896964 -0.000000
v 0.231607 4.585424 -0.075254
v 0.197017 4.585424 -0.143141
v 0.143141 4.585424 -0.197017
v 0.075254 4.585424 -0.231607
v 0.000000 4.585424 -0.243526
v -0.075254 4.585424 -0.231607
v -0.143141 4.585424 -0.197017
v -0.197017 4.585424 -0.143141
v -0.231607 4.585424 -0.075254
v -0.243526 4.585424 -0.000000
v -0.231607 4.585424 0.075254
v -0.197017 4.585424 0.143141
v -0.143141 4.585424 0.197017
v -0.075254 4.585424 0.231607
v -0.000000 4.585424 0.243526
v 0.075254 4.585424 0.231607
v 0.143141 4.585424 0.197017
v 0.197017 4.585424 0.143141
v 0.231607 4.585424 0.075254
v 0.243526 4.585424 -0.000000
v 0.000000 0.896964 -0.000000
v 0.322307 4.480382 -0.104724
v 0.274170 4.480382 -0.199196
v 0.199196 4.480382 -0.274170
v 0.104724 4.480382 -0.322307
v 0.000000 4.480382 -0.338893
v -0.104724 4.480382 -0.322307
v -0.199196 4.480382 -0.274170
v -0.274170 4.480382 -0.199196
v -0.322307 4.480382 -0.104724
v -0.338893 4.480382 0.000000
v -0.322307 4.480382 0.104724
v -0.274170 4.480382 0.199196
v -0.199196 4.480382 0.274170
v -0.104724 4.480382 0.322306
v -0.000000 4.480382 0.338893
v 0.104724 4.480382 0.322306
v 0.199196 4.480382 0.274170
v 0.274170 4.480382 0.199196
v 0.322306 4.480382 0.104724
v 0.338893 4.480382 0.000000
v 0.322307 4.653840 -0.104724
v 0.274170 4.653840 -0.199196
v 0.199196 4.653840 -0.274170
v 0.104724 4.653840 -0.322307
v 0.000000 4.653840 -0.338893
v -0.104724 4.653840 -0.322307
v -0.199196 4.653840 -0.274170
v -0.274170 4.653840 -0.199196
v -0.322307 4.653840 -0.104724
v -0.338893 4.653840 0.000000
v -0.322307 4.653840 0.104724
v -0.274170 4.653840 0.199196
v -0.199196 4.653840 0.274170
v -0.104724 4.653840 0.322306
v -0.000000 4.653840 0.338893
v 0.104724 4.653840 0.322306
v 0.199196 4.653840 0.274170
v 0.274170 4.653840 0.199196
v 0.322306 4.653840 0.104724
v 0.338893 4.653840 0.000000
v 0.000000 4.480382 0.000000
v 0.951057 5.857257 -1.524004
v 0.809018 6.136025 -1.524004
v 0.587786 6.357257 -1.524004
v 0.309017 6.499297 -1.524004
v 0.000000 6.548240 -1.524004
v -0.309017 6.499297 -1.524004
v -0.587785 6.357257 -1.524004
v -0.809017 6.136025 -1.524004
v -0.951057 5.857257 -1.524004
v -1.000000 5.548240 -1.524004
v -0.951057 5.239223 -1.524004
v -0.809017 4.960454 -1.524004
v -0.587785 4.739223 -1.524004
v -0.309017 4.597183 -1.524004
v -0.000000 4.548240 -1.524004
v 0.309017 4.597183 -1.524004
v 0.587785 4.739223 -1.524004
v 0.809017 4.960454 -1.524004
v 0.951057 5.239223 -1.524004
v 1.000000 5.548240 -1.524004
v 0.951057 5.857257 1.524004
v 0.809018 6.136025 1.524004
v 0.587786 6.357257 1.524004
v 0.309017 6.499297 1.524004
v 0.000000 6.548240 1.524004
v -0.309017 6.499297 1.524004
v -0.587785 6.357257 1.524004
v -0.809017 6.136025 1.524004
v -0.951057 5.857257 1.524004
v -1.000000 5.548240 1.524004
v -0.951057 5.239223 1.524004
v -0.809017 4.960454 1.524004
v -0.587785 4.739223 1.524004
v -0.309017 4.597183 1.524004
v -0.000000 4.548240 1.524004
v 0.309017 4.597183 1.524004
v 0.587785 4.739223 1.524004
v 0.809017 4.960454 1.524004
v 0.951057 5.239223 1.524004
v 1.000000 5.548240 1.524004
v 0.000000 5.548240 -1.524004
v 0.000000 5.548240 1.524004
v 0.000000 6.448240 -1.524004
v 0.278115 6.404191 -1.524004
v 0.529007 6.276355 -1.524004
v 0.728116 6.077247 -1.524004
v 0.855951 5.826355 -1.524004
v 0.900000 5.548240 -1.524004
v 0.855951 5.270124 -1.524004
v 0.728115 5.019233 -1.524004
v 0.529007 4.820125 -1.524004
v 0.278115 4.692289 -1.524004
v -0.000000 4.648240 -1.524004
v -0.278115 4.692289 -1.524004
v -0.529007 4.820124 -1.524004
v -0.728115 5.019233 -1.524004
v -0.855951 5.270124 -1.524004
v -0.900000 5.548240 -1.524004
v -0.855951 5.826355 -1.524004
v -0.728115 6.077247 -1.524004
v -0.529007 6.276355 -1.524004
v -0.278115 6.404191 -1.524004
v 0.309017 6.499297 -1.599005
v 0.000000 6.548240 -1.599005
v 0.278115 6.404191 -1.599005
v 0.000000 6.448240 -1.599005
v 0.587786 6.357257 -1.599005
v 0.529007 6.276355 -1.599005
v 0.809017 6.136025 -1.599005
v 0.728116 6.077247 -1.599005
v 0.951057 5.857257 -1.599005
v 0.855951 5.826355 -1.599005
v 1.000000 5.548240 -1.599005
v 0.900000 5.548240 -1.599005
v 0.951057 5.239223 -1.599005
v 0.855951 5.270124 -1.599005
v 0.809017 4.960454 -1.599005
v 0.728115 5.019233 -1.599005
v 0.587785 4.739223 -1.599005
v 0.529007 4.820125 -1.599005
v 0.309017 4.597183 -1.599005
v 0.278115 4.692289 -1.599005
v -0.000000 4.548240 -1.599005
v -0.000000 4.648240 -1.599005
v -0.309017 4.597183 -1.599005
v -0.278115 4.692289 -1.599005
v -0.587785 4.739223 -1.599005
v -0.529007 4.820124 -1.599005
v -0.809017 4.960454 -1.599005
v -0.728115 5.019233 -1.599005
v -0.951057 5.239223 -1.599005
v -0.855951 5.270124 -1.599005
v -1.000000 5.548240 -1.599005
v -0.900000 5.548240 -1.599005
v -0.951057 5.857257 -1.599005
v -0.855951 5.826355 -1.599005
v -0.809017 6.136025 -1.599005
v -0.728115 6.077247 -1.599005
v -0.587785 6.357257 -1.599005
v -0.529007 6.276355 -1.599005
v -0.309017 6.499297 -1.599005
v -0.278115 6.404191 -1.599005
v 0.000000 6.448240 1.524004
v -0.278115 6.404191 1.524004
v -0.529007 6.276355 1.524004
v -0.728115 6.077247 1.524004
v -0.855951 5.826355 1.524004
v -0.900000 5.548240 1.524004
v -0.855951 5.270124 1.524004
v -0.728115 5.019233 1.524004
v -0.529007 4.820124 1.524004
v -0.278115 4.692289 1.524004
v -0.000000 4.648240 1.524004
v 0.278115 4.692289 1.524004
v 0.529007 4.820124 1.524004
v 0.728115 5.019233 1.524004
v 0.855951 5.270124 1.524004
v 0.900000 5.548240 1.524004
v 0.855951 5.826355 1.524004
v 0.728116 6.077247 1.524004
v 0.529007 6.276356 1.524004
v 0.278115 6.404191 1.524004
v -0.000000 6.548240 1.599005
v -0.309017 6.499297 1.599005
v -0.278115 6.404191 1.599005
v -0.000000 6.448240 1.599005
v -0.587785 6.357257 1.599005
v -0.529007 6.276355 1.599005
v -0.809017 6.136025 1.599005
v -0.728115 6.077247 1.599005
v -0.951057 5.857257 1.599005
v -0.855951 5.826355 1.599005
v -1.000000 5.548240 1.599005
v -0.900000 5.548240 1.599005
v -0.951057 5.239223 1.599005
v -0.855951 5.270124 1.599005
v -0.809017 4.960454 1.599005
v -0.728115 5.019233 1.599005
v -0.587785 4.739223 1.599005
v -0.529007 4.820124 1.599005
v -0.309017 4.597183 1.599005
v -0.278115 4.692289 1.599005
v -0.000000 4.548240 1.599005
v -0.000000 4.648240 1.599005
v 0.309017 4.597183 1.599005
v 0.278115 4.692289 1.599005
v 0.587785 4.739223 1.599005
v 0.529007 4.820124 1.599005
v 0.809017 4.960454 1.599005
v 0.728115 5.019233 1.599005
v 0.951057 5.239223 1.599005
v 0.855951 5.270124 1.599005
v 1.000000 5.548240 1.599005
v 0.900000 5.548240 1.599005
v 0.951057 5.857257 1.599005
v 0.855951 5.826355 1.599005
v 0.809018 6.136025 1.599005
v 0.728116 6.077247 1.599005
v 0.587786 6.357257 1.599005
v 0.529007 6.276356 1.599005
v 0.309017 6.499297 1.599005
v 0.278115 6.404191 1.599005
v -0.153487 6.636137 -0.049871
v -0.130564 6.636137 -0.094860
v -0.094860 6.636137 -0.130564
v -0.049871 6.636137 -0.153487
v 0.000000 6.636137 -0.161386
v 0.049871 6.636137 -0.153487
v 0.094860 6.636137 -0.130564
v 0.130564 6.636137 -0.094860
v 0.153487 6.636137 -0.049871
v 0.161386 6.636137 0.000000
v 0.153487 6.636137 0.049871
v 0.130564 6.636137 0.094860
v 0.094860 6.636137 0.130564
v 0.049871 6.636137 0.153487
v 0.000000 6.636137 0.161386
v -0.049871 6.636137 0.153487
v -0.094860 6.636137 0.130564
v -0.130564 6.636137 0.094860
v -0.153487 6.636137 0.049871
v -0.161386 6.636137 0.000000
v -0.153487 6.462679 -0.049871
v -0.130564 6.462679 -0.094860
v -0.094860 6.462679 -0.130564
v -0.049871 6.462679 -0.153487
v -0.000000 6.462679 -0.161386
v 0.049871 6.462679 -0.153487
v 0.094860 6.462679 -0.130564
v 0.130564 6.462679 -0.094860
v 0.153487 6.462679 -0.049871
v 0.161386 6.462679 0.000000
v 0.153487 6.462679 0.049871
v 0.130564 6.462679 0.094860
v 0.094860 6.462679 0.130564
v 0.049871 6.462679 0.153487
v 0.000000 6.462679 0.161386
v -0.049871 6.462679 0.153487
v -0.094860 6.462679 0.130564
v -0.130564 6.462679 0.094860
v -0.153487 6.462679 0.049871
v -0.161386 6.462679 0.000000
v 0.000000 6.636137 0.000000
vt 0.125053 0.047637
vt 0.116488 0.053953
vt 0.164724 0.650324
vt 0.154082 0.650322
vt 0.110295 0.062606
vt 0.175365 0.650326
vt 0.107079 0.072750
vt 0.186006 0.650328
vt 0.107154 0.083391
vt 0.196648 0.650330
vt 0.110515 0.093487
vt 0.207289 0.650332
vt 0.116830 0.102052
vt 0.217930 0.650334
vt 0.125484 0.108245
vt 0.228572 0.650335
vt 0.135627 0.111461
vt 0.239213 0.650337
vt 0.146268 0.111386
vt 0.037028 0.650302
vt 0.156365 0.108025
vt 0.047670 0.650304
vt 0.164929 0.101710
vt 0.058311 0.650306
vt 0.171123 0.093056
vt 0.068952 0.650308
vt 0.174339 0.082913
vt 0.079593 0.650310
vt 0.174263 0.072272
vt 0.090235 0.650311
vt 0.170903 0.062175
vt 0.100876 0.650313
vt 0.164587 0.053611
vt 0.111517 0.650315
vt 0.155934 0.047417
vt 0.122159 0.650317
vt 0.145790 0.044201
vt 0.132800 0.650319
vt 0.135149 0.044277
vt 0.143441 0.650321
vt 0.140709 0.077831
vt 0.773319 0.378182
vt 0.761286 0.386813
vt 0.604530 0.438199
vt 0.589721 0.438199
vt 0.752509 0.398740
vt 0.619338 0.438198
vt 0.747848 0.412796
vt 0.634147 0.438197
vt 0.747757 0.427604
vt 0.648955 0.438197
vt 0.752248 0.441715
vt 0.663764 0.438196
vt 0.760879 0.453748
vt 0.678572 0.438195
vt 0.772806 0.462525
vt 0.693381 0.438194
vt 0.786862 0.467187
vt 0.708189 0.438194
vt 0.801670 0.467277
vt 0.426828 0.438208
vt 0.815781 0.462787
vt 0.441636 0.438207
vt 0.827814 0.454156
vt 0.456444 0.438206
vt 0.836591 0.442229
vt 0.471253 0.438205
vt 0.841253 0.428173
vt 0.486061 0.438205
vt 0.841343 0.413365
vt 0.500870 0.438204
vt 0.836853 0.399253
vt 0.515679 0.438203
vt 0.828222 0.387220
vt 0.530487 0.438202
vt 0.816294 0.378443
vt 0.545295 0.438202
vt 0.802239 0.373782
vt 0.560104 0.438201
vt 0.787431 0.373691
vt 0.574912 0.438200
vt 0.794550 0.420484
vt 0.682970 0.944975
vt 0.656215 0.944978
vt 0.656189 0.679969
vt 0.682944 0.679966
vt 0.629462 0.944981
vt 0.629436 0.679972
vt 0.602713 0.944983
vt 0.602687 0.679974
vt 0.575980 0.944986
vt 0.575953 0.679977
vt 0.549275 0.944989
vt 0.549249 0.679980
vt 0.522623 0.944991
vt 0.522597 0.679982
vt 0.496076 0.944994
vt 0.496050 0.679985
vt 0.469714 0.944996
vt 0.469688 0.679988
vt 0.444136 0.944999
vt 0.975460 0.679937
vt 0.949673 0.944949
vt 0.949647 0.679940
vt 0.923367 0.944951
vt 0.923340 0.679942
vt 0.896826 0.944954
vt 0.896800 0.679945
vt 0.870176 0.944957
vt 0.870150 0.679948
vt 0.843472 0.944959
vt 0.843445 0.679950
vt 0.816738 0.944962
vt 0.816712 0.679953
vt 0.789989 0.944965
vt 0.789963 0.679956
vt 0.763236 0.944967
vt 0.763210 0.679958
vt 0.736481 0.944970
vt 0.736455 0.679961
vt 0.709726 0.944973
vt 0.709699 0.679964
vt 0.656217 0.966817
vt 0.682972 0.966815
vt 0.323658 0.834543
vt 0.629464 0.966820
vt 0.602715 0.966823
vt 0.575982 0.966825
vt 0.549277 0.966828
vt 0.522626 0.966831
vt 0.496078 0.966833
vt 0.469716 0.966836
vt 0.975489 0.966785
vt 0.949676 0.966788
vt 0.923369 0.966791
vt 0.896829 0.966793
vt 0.870178 0.966796
vt 0.843474 0.966799
vt 0.816741 0.966801
vt 0.789991 0.966804
vt 0.763238 0.966807
vt 0.736483 0.966809
vt 0.709728 0.966812
vt 0.682942 0.658286
vt 0.656187 0.658288
vt 0.323745 0.834543
vt 0.629434 0.658291
vt 0.602684 0.658294
vt 0.575951 0.658296
vt 0.549246 0.658299
vt 0.522595 0.658302
vt 0.496048 0.658304
vt 0.469685 0.658307
vt 0.444108 0.658309
vt 0.949645 0.658259
vt 0.923338 0.658262
vt 0.896798 0.658264
vt 0.870148 0.658267
vt 0.843443 0.658270
vt 0.816710 0.658272
vt 0.789961 0.658275
vt 0.763208 0.658278
vt 0.736453 0.658280
vt 0.709697 0.658283
vt 0.575980 0.951648
vt 0.602714 0.951645
vt 0.602714 0.960293
vt 0.575981 0.960296
vt 0.629463 0.951643
vt 0.629464 0.960290
vt 0.656216 0.951640
vt 0.656217 0.960288
vt 0.682971 0.951637
vt 0.682972 0.960285
vt 0.709726 0.951635
vt 0.709727 0.960282
vt 0.736482 0.951632
vt 0.736483 0.960280
vt 0.763237 0.951629
vt 0.763238 0.960277
vt 0.789990 0.951627
vt 0.789991 0.960274
vt 0.816739 0.951624
vt 0.816740 0.960272
vt 0.843472 0.951622
vt 0.843473 0.960269
vt 0.870177 0.951619
vt 0.870178 0.960266
vt 0.896827 0.951616
vt 0.896828 0.960264
vt 0.923367 0.951614
vt 0.923368 0.960261
vt 0.949674 0.951611
vt 0.949675 0.960258
vt 0.444137 0.951661
vt 0.444138 0.960309
vt 0.469715 0.951659
vt 0.469715 0.960306
vt 0.496077 0.951656
vt 0.496078 0.960304
vt 0.522624 0.951653
vt 0.522625 0.960301
vt 0.549275 0.951651
vt 0.549276 0.960298
vt 0.575953 0.673348
vt 0.549248 0.673351
vt 0.549247 0.664757
vt 0.575952 0.664755
vt 0.522596 0.673353
vt 0.522595 0.664760
vt 0.496049 0.673356
vt 0.496048 0.664763
vt 0.469687 0.673359
vt 0.469686 0.664765
vt 0.975459 0.673308
vt 0.975459 0.664715
vt 0.949646 0.673311
vt 0.949645 0.664718
vt 0.923340 0.673313
vt 0.923339 0.664720
vt 0.896799 0.673316
vt 0.896798 0.664723
vt 0.870149 0.673319
vt 0.870148 0.664725
vt 0.843445 0.673322
vt 0.843444 0.664728
vt 0.816711 0.673324
vt 0.816711 0.664731
vt 0.789962 0.673327
vt 0.789961 0.664733
vt 0.763209 0.673329
vt 0.763208 0.664736
vt 0.736454 0.673332
vt 0.736453 0.664739
vt 0.709699 0.673335
vt 0.709698 0.664741
vt 0.682943 0.673337
vt 0.682942 0.664744
vt 0.656188 0.673340
vt 0.656187 0.664747
vt 0.629435 0.673343
vt 0.629434 0.664749
vt 0.602686 0.673345
vt 0.602685 0.664752
vt 0.747504 0.182088
vt 0.758498 0.178543
vt 0.451017 0.171856
vt 0.439465 0.171857
vt 0.767859 0.171774
vt 0.462568 0.171855
vt 0.774670 0.162444
vt 0.474119 0.171855
vt 0.778264 0.151466
vt 0.485671 0.171854
vt 0.778290 0.139914
vt 0.497222 0.171853
vt 0.774745 0.128920
vt 0.508774 0.171853
vt 0.767976 0.119560
vt 0.520325 0.171852
vt 0.758646 0.112749
vt 0.531877 0.171852
vt 0.747668 0.109155
vt 0.543428 0.171851
vt 0.736117 0.109129
vt 0.554979 0.171850
vt 0.725123 0.112674
vt 0.566531 0.171850
vt 0.715762 0.119443
vt 0.578082 0.171849
vt 0.708951 0.128773
vt 0.589634 0.171849
vt 0.705357 0.139751
vt 0.601185 0.171848
vt 0.705331 0.151302
vt 0.612736 0.171848
vt 0.708876 0.162296
vt 0.624288 0.171847
vt 0.715645 0.171657
vt 0.635839 0.171846
vt 0.724975 0.178468
vt 0.647391 0.171845
vt 0.735953 0.182062
vt 0.427914 0.171857
vt 0.741810 0.145608
vt 0.249854 0.650339
vt 0.143530 0.135174
vt 0.154171 0.135176
vt 0.132889 0.135172
vt 0.122248 0.135170
vt 0.111606 0.135168
vt 0.100965 0.135167
vt 0.090324 0.135165
vt 0.079683 0.135163
vt 0.069041 0.135161
vt 0.058400 0.135159
vt 0.047759 0.135157
vt 0.037117 0.135156
vt 0.228660 0.135189
vt 0.218019 0.135187
vt 0.207378 0.135185
vt 0.196737 0.135183
vt 0.186095 0.135181
vt 0.175454 0.135180
vt 0.164813 0.135178
vt 0.722998 0.438193
vt 0.426826 0.413982
vt 0.574911 0.413974
vt 0.589720 0.413974
vt 0.560103 0.413975
vt 0.545294 0.413976
vt 0.530486 0.413977
vt 0.515677 0.413977
vt 0.500869 0.413978
vt 0.486060 0.413979
vt 0.471252 0.413980
vt 0.456443 0.413980
vt 0.441635 0.413981
vt 0.693379 0.413969
vt 0.678571 0.413969
vt 0.663762 0.413970
vt 0.648954 0.413971
vt 0.634145 0.413971
vt 0.619337 0.413972
vt 0.604528 0.413973
vt 0.658942 0.171845
vt 0.647389 0.132163
vt 0.658940 0.132163
vt 0.635837 0.132164
vt 0.624286 0.132164
vt 0.612734 0.132165
vt 0.601183 0.132166
vt 0.589632 0.132166
vt 0.578080 0.132167
vt 0.566529 0.132167
vt 0.554977 0.132168
vt 0.543426 0.132169
vt 0.531875 0.132169
vt 0.520323 0.132170
vt 0.508772 0.132170
vt 0.497220 0.132171
vt 0.485669 0.132171
vt 0.474117 0.132172
vt 0.462566 0.132173
vt 0.451014 0.132173
vt 0.444110 0.679990
vt 0.975486 0.944946
vt 0.975488 0.960256
vt 0.975487 0.951608
vt 0.378627 0.779692
vt 0.392884 0.799343
vt 0.358997 0.765415
vt 0.335920 0.757912
vt 0.268699 0.779567
vt 0.288327 0.765278
vt 0.254435 0.799227
vt 0.246935 0.822336
vt 0.246936 0.846636
vt 0.254442 0.869747
vt 0.268718 0.889410
vt 0.288369 0.903700
vt 0.311473 0.911220
vt 0.335768 0.911233
vt 0.358878 0.903739
vt 0.378541 0.889471
vt 0.392832 0.869828
vt 0.400354 0.846732
vt 0.400371 0.822444
vt 0.444109 0.673361
vt 0.444109 0.664768
vt 0.335870 0.757838
vt 0.358968 0.765335
vt 0.311582 0.757846
vt 0.288483 0.765359
vt 0.268835 0.779643
vt 0.254561 0.799300
vt 0.247059 0.822407
vt 0.247063 0.846702
vt 0.254575 0.869807
vt 0.268858 0.889463
vt 0.288516 0.903744
vt 0.311625 0.911256
vt 0.335924 0.911263
vt 0.359036 0.903768
vt 0.378701 0.889507
vt 0.975458 0.658257
vt 0.400381 0.822321
vt 0.392885 0.799238
vt 0.378615 0.779601
vt 0.400364 0.846587
vt 0.392996 0.869879
vt 0.444139 0.966838
vt 0.311659 0.757920
vt 0.427912 0.132175
vt 0.439463 0.132174
vt 0.239302 0.135191
vt 0.249943 0.135192
vt 0.708188 0.413968
vt 0.722996 0.413967
vn 0.951057 0.000000 -0.309016
vn 0.809017 0.000000 -0.587785
vn 0.809017 0.000000 -0.587785
vn 0.951057 0.000000 -0.309016
vn 0.587785 0.000000 -0.809017
vn 0.587785 0.000000 -0.809017
vn 0.309017 0.000000 -0.951057
vn 0.309017 0.000000 -0.951057
vn -0.000000 0.000000 -1.000000
vn -0.000000 0.000000 -1.000000
vn -0.309017 0.000000 -0.951057
vn -0.309017 0.000000 -0.951057
vn -0.587785 0.000000 -0.809017
vn -0.587785 0.000000 -0.809017
vn -0.809017 0.000000 -0.587785
vn -0.809017 0.000000 -0.587785
vn -0.951057 0.000000 -0.309017
vn -0.951057 0.000000 -0.309017
vn -1.000000 0.000000 0.000000
vn -1.000000 0.000000 0.000000
vn -0.951057 0.000000 0.309017
vn -0.951057 0.000000 0.309017
vn -0.809017 0.000000 0.587785
vn -0.809017 0.000000 0.587785
vn -0.587785 0.000000 0.809017
vn -0.587785 0.000000 0.809017
vn -0.309017 0.000000 0.951057
vn -0.309017 0.000000 0.951057
vn 0.000000 0.000000 1.000000
vn 0.000000 0.000000 1.000000
vn 0.309017 0.000000 0.951057
vn 0.309017 0.000000 0.951057
vn 0.587785 0.000000 0.809017
vn 0.587785 0.000000 0.809017
vn 0.809017 0.000000 0.587785
vn 0.809017 0.000000 0.587785
vn 0.951057 0.000000 0.309017
vn 0.951057 0.000000 0.309017
vn 1.000000 0.000000 0.000001
vn 1.000000 0.000000 0.000001
vn 0.000000 -1.000000 0.000000
vn 0.000000 -1.000000 -0.000001
vn 0.000000 -1.000000 -0.000000
vn 0.000000 -1.000000 -0.000000
vn 0.000000 -1.000000 -0.000000
vn 0.000000 -1.000000 0.000000
vn 0.000000 -1.000000 -0.000001
vn 0.000000 -1.000000 -0.000001
vn 0.000000 -1.000000 0.000000
vn 0.000000 -1.000000 0.000000
vn 0.000000 -1.000000 0.000000
vn 0.000000 -1.000000 0.000001
vn 0.000000 -1.000000 0.000001
vn 0.000000 -1.000000 0.000000
vn 0.000000 -1.000000 -0.000000
vn 0.000000 -1.000000 -0.000000
vn 0.000000 -1.000000 0.000000
vn 0.000000 -1.000000 0.000000
vn 0.000000 -1.000000 0.000000
vn 0.000000 -1.000000 0.000001
vn 0.000000 -1.000000 -0.000000
vn 0.951057 0.000000 -0.309016
vn 0.809017 0.000000 -0.587785
vn 0.809017 0.000000 -0.587785
vn 0.951057 0.000000 -0.309016
vn 0.587785 0.000000 -0.809017
vn 0.587785 0.000000 -0.809017
vn 0.309017 0.000000 -0.951057
vn 0.309017 0.000000 -0.951057
vn -0.000000 0.000000 -1.000000
vn -0.000000 0.000000 -1.000000
vn -0.309017 0.000000 -0.951057
vn -0.309017 0.000000 -0.951057
vn -0.587786 0.000000 -0.809017
vn -0.587786 0.000000 -0.809017
vn -0.809017 0.000000 -0.587785
vn -0.809017 0.000000 -0.587785
vn -0.951057 0.000000 -0.309017
vn -0.951057 0.000000 -0.309017
vn -1.000000 0.000000 0.000000
vn -1.000000 0.000000 0.000000
vn -0.951057 0.000000 0.309017
vn -0.951057 0.000000 0.309017
vn -0.809017 0.000000 0.587785
vn -0.809017 0.000000 0.587785
vn -0.587785 0.000000 0.809017
vn -0.587785 0.000000 0.809017
vn -0.309017 0.000000 0.951057
vn -0.309017 0.000000 0.951057
vn 0.000000 0.000000 1.000000
vn 0.000000 0.000000 1.000000
vn 0.309017 0.000000 0.951057
vn 0.309017 0.000000 0.951057
vn 0.587785 0.000000 0.809017
vn 0.587785 0.000000 0.809017
vn 0.809017 0.000000 0.587786
vn 0.809017 0.000000 0.587786
vn 0.951057 0.000000 0.309017
vn 0.951057 0.000000 0.309017
vn 1.000000 0.000000 0.000001
vn 1.000000 0.000000 0.000001
vn 0.000000 -1.000000 -0.000002
vn 0.000000 -1.000000 -0.000003
vn 0.000000 -1.000000 0.000000
vn 0.000000 -1.000000 0.000002
vn 0.000000 -1.000000 0.000000
vn 0.000000 -1.000000 0.000000
vn 0.000000 -1.000000 0.000002
vn 0.000000 -1.000000 -0.000002
vn 0.000000 -1.000000 0.000000
vn 0.000000 -1.000000 0.000000
vn 0.000000 -1.000000 0.000000
vn 0.000000 -1.000000 0.000003
vn 0.000000 -1.000000 0.000000
vn 0.000000 -1.000000 0.000001
vn 0.000000 -1.000000 0.000001
vn 0.000000 -1.000000 -0.000000
vn 0.000000 -1.000000 -0.000001
vn 0.000000 -1.000000 0.000000
vn 0.000000 -1.000000 0.000000
vn 0.000000 -1.000000 0.000000
vn 0.000000 -1.000000 0.000000
vn 0.951057 0.309016 -0.000000
vn 0.809017 0.587785 -0.000000
vn 0.809017 0.587785 0.000000
vn 0.951057 0.309016 0.000000
vn 0.587785 0.809017 -0.000000
vn 0.587785 0.809017 0.000000
vn 0.309017 0.951057 -0.000000
vn 0.309017 0.951057 0.000000
vn -0.000000 1.000000 -0.000000
vn 0.000000 1.000000 0.000000
vn -0.309017 0.951056 0.000000
vn -0.309017 0.951056 0.000000
vn -0.587786 0.809017 0.000000
vn -0.587786 0.809017 0.000000
vn -0.809017 0.587785 0.000000
vn -0.809017 0.587785 0.000000
vn -0.951057 0.309017 0.000000
vn -0.951057 0.309017 0.000000
vn -1.000000 0.000000 0.000000
vn -1.000000 0.000000 0.000000
vn -0.951057 -0.309017 0.000000
vn -0.951057 -0.309017 0.000000
vn -0.809017 -0.587785 0.000000
vn -0.809017 -0.587785 0.000000
vn -0.587785 -0.809017 -0.000000
vn -0.587785 -0.809017 0.000000
vn -0.309017 -0.951057 0.000000
vn -0.309017 -0.951057 0.000000
vn -0.000000 -1.000000 0.000000
vn -0.000000 -1.000000 -0.000000
vn 0.309017 -0.951057 0.000000
vn 0.309017 -0.951057 -0.000000
vn 0.587785 -0.809017 0.000000
vn 0.587785 -0.809017 -0.000000
vn 0.809017 -0.587785 0.000000
vn 0.809017 -0.587785 0.000000
vn 0.951057 -0.309017 0.000000
vn 0.951057 -0.309017 0.000000
vn 1.000000 -0.000001 0.000000
vn 1.000000 -0.000001 0.000000
vn 0.000000 0.000000 -1.000000
vn 0.000000 0.000000 -1.000000
vn -0.000000 0.000000 -1.000000
vn 0.000000 0.000000 -1.000000
vn 0.000000 0.000000 -1.000000
vn 0.000000 0.000000 -1.000000
vn 0.000000 0.000000 -1.000000
vn 0.000000 0.000000 -1.000000
vn 0.000000 0.000000 -1.000000
vn 0.000000 0.000000 -1.000000
vn 0.000000 0.000000 -1.000000
vn 0.000000 0.000000 -1.000000
vn 0.000000 0.000000 -1.000000
vn -0.000000 0.000000 -1.000000
vn -0.000000 0.000000 -1.000000
vn 0.000000 0.000000 -1.000000
vn 0.000000 0.000000 -1.000000
vn 0.000000 0.000000 -1.000000
vn 0.000000 0.000000 -1.000000
vn 0.000000 0.000000 -1.000000
vn 0.000000 0.000000 -1.000000
vn 0.000000 0.000000 1.000000
vn -0.000000 0.000000 1.000000
vn 0.000000 0.000000 1.000000
vn 0.000000 0.000000 1.000000
vn 0.000000 0.000000 1.000000
vn 0.000000 0.000000 1.000000
vn 0.000000 0.000000 1.000000
vn 0.000000 0.000000 1.000000
vn 0.000000 0.000000 1.000000
vn 0.000000 0.000000 1.000000
vn 0.000000 0.000000 1.000000
vn 0.000000 0.000000 1.000000
vn 0.000000 0.000000 1.000000
vn -0.000000 0.000000 1.000000
vn -0.000000 0.000000 1.000000
vn 0.000000 0.000000 1.000000
vn 0.000000 0.000000 1.000000
vn 0.000000 0.000000 1.000000
vn 0.000000 0.000000 1.000000
vn 0.000000 0.000000 1.000000
vn 0.000000 0.000000 1.000000
vn 0.000000 0.000000 -1.000000
vn 0.000000 0.000000 -1.000000
vn 0.000000 0.000000 -1.000000
vn 0.000000 0.000000 -1.000000
vn 0.000001 0.000000 -1.000000
vn 0.000001 0.000000 -1.000000
vn 0.000001 0.000000 -1.000000
vn 0.000001 0.000000 -1.000000
vn 0.000000 0.000000 -1.000000
vn 0.000000 0.000000 -1.000000
vn 0.000000 0.000000 -1.000000
vn 0.000000 0.000000 -1.000000
vn -0.000000 0.000000 -1.000000
vn -0.000000 0.000000 -1.000000
vn -0.000000 0.000000 -1.000000
vn -0.000000 0.000000 -1.000000
vn 0.000000 0.000000 -1.000000
vn 0.000000 0.000000 -1.000000
vn 0.000000 0.000000 -1.000000
vn 0.000000 0.000000 -1.000000
vn 0.000000 0.000000 -1.000000
vn 0.000000 0.000000 -1.000000
vn -0.000001 0.000000 -1.000000
vn -0.000001 0.000000 -1.000000
vn -0.000001 0.000000 -1.000000
vn -0.000001 0.000000 -1.000000
vn -0.000000 0.000000 -1.000000
vn -0.000000 0.000000 -1.000000
vn -0.000000 0.000000 -1.000000
vn -0.000000 0.000000 -1.000000
vn -0.000000 0.000000 -1.000000
vn -0.000000 0.000000 -1.000000
vn 0.000000 0.000000 -1.000000
vn 0.000000 0.000000 -1.000000
vn -0.000000 0.000000 -1.000000
vn -0.000000 0.000000 -1.000000
vn -0.000000 0.000000 -1.000000
vn -0.000000 0.000000 -1.000000
vn 0.000000 0.000000 -1.000000
vn 0.000000 0.000000 -1.000000
vn 0.309016 0.951057 -0.000002
vn 0.000000 1.000000 -0.000002
vn -0.309018 -0.951056 -0.000000
vn 0.000000 -1.000000 -0.000003
vn -0.000000 -1.000000 -0.000003
vn -0.309018 -0.951056 -0.000000
vn 0.587784 0.809018 -0.000000
vn -0.587786 -0.809017 -0.000001
vn -0.587785 -0.809017 -0.000001
vn 0.809017 0.587786 -0.000001
vn -0.809017 -0.587785 -0.000000
vn -0.809017 -0.587785 -0.000000
vn 0.951057 0.309016 -0.000000
vn -0.951057 -0.309016 0.000000
vn -0.951057 -0.309016 0.000000
vn 1.000000 -0.000001 0.000000
vn -1.000000 0.000001 0.000000
vn -1.000000 0.000001 0.000000
vn 0.951057 -0.309017 0.000000
vn -0.951057 0.309017 0.000000
vn -0.951057 0.309017 0.000000
vn 0.809017 -0.587785 0.000000
vn -0.809017 0.587785 0.000000
vn -0.809017 0.587785 0.000000
vn 0.587785 -0.809017 0.000000
vn -0.587785 0.809017 0.000000
vn -0.587785 0.809017 0.000000
vn 0.309016 -0.951057 0.000000
vn -0.309018 0.951056 0.000001
vn -0.309018 0.951056 0.000001
vn -0.000000 -1.000000 0.000001
vn -0.000000 1.000000 0.000000
vn 0.000000 1.000000 0.000000
vn -0.309017 -0.951057 0.000000
vn 0.309017 0.951057 -0.000000
vn 0.309017 0.951057 -0.000000
vn -0.587785 -0.809017 -0.000000
vn 0.587785 0.809017 0.000000
vn 0.587785 0.809017 0.000000
vn -0.809017 -0.587785 0.000000
vn 0.809017 0.587785 0.000000
vn 0.809017 0.587785 0.000000
vn -0.951057 -0.309017 0.000000
vn 0.951056 0.309017 0.000000
vn 0.951056 0.309017 0.000000
vn -1.000000 0.000000 0.000000
vn 1.000000 0.000000 0.000000
vn 1.000000 0.000000 0.000000
vn -0.951057 0.309017 0.000000
vn 0.951057 -0.309017 0.000000
vn 0.951057 -0.309017 0.000000
vn -0.809017 0.587785 0.000000
vn 0.809017 -0.587785 0.000000
vn 0.809017 -0.587785 0.000000
vn -0.587785 0.809017 0.000000
vn 0.587786 -0.809017 0.000000
vn 0.587786 -0.809017 0.000000
vn -0.309017 0.951056 0.000000
vn 0.309018 -0.951056 -0.000003
vn 0.309018 -0.951056 -0.000003
vn 0.000000 0.000000 1.000000
vn -0.000000 0.000000 1.000000
vn -0.000000 0.000000 1.000000
vn 0.000000 0.000000 1.000000
vn -0.000001 0.000000 1.000000
vn -0.000001 0.000000 1.000000
vn -0.000000 0.000000 1.000000
vn -0.000000 0.000000 1.000000
vn -0.000000 0.000000 1.000000
vn -0.000000 0.000000 1.000000
vn -0.000000 0.000000 1.000000
vn -0.000000 0.000000 1.000000
vn 0.000000 0.000000 1.000000
vn 0.000000 0.000000 1.000000
vn -0.000000 0.000000 1.000000
vn -0.000000 0.000000 1.000000
vn -0.000001 0.000000 1.000000
vn -0.000001 0.000000 1.000000
vn -0.000000 0.000000 1.000000
vn -0.000000 0.000000 1.000000
vn 0.000000 0.000000 1.000000
vn 0.000000 0.000000 1.000000
vn 0.000001 0.000000 1.000000
vn 0.000001 0.000000 1.000000
vn 0.000001 0.000000 1.000000
vn 0.000001 0.000000 1.000000
vn 0.000000 0.000000 1.000000
vn 0.000000 0.000000 1.000000
vn 0.000000 0.000000 1.000000
vn 0.000000 0.000000 1.000000
vn 0.000000 0.000000 1.000000
vn 0.000000 0.000000 1.000000
vn 0.000000 0.000000 1.000000
vn 0.000000 0.000000 1.000000
vn 0.000000 0.000000 1.000000
vn 0.000000 0.000000 1.000000
vn 0.000000 0.000000 1.000000
vn 0.000000 0.000000 1.000000
vn 0.000000 0.000000 1.000000
vn 0.000000 0.000000 1.000000
vn -0.309017 0.951056 0.000002
vn -0.000000 1.000000 0.000002
vn 0.309018 -0.951056 0.000000
vn -0.000000 -1.000000 0.000003
vn 0.000000 -1.000000 0.000003
vn 0.309018 -0.951056 0.000000
vn -0.587785 0.809017 0.000000
vn 0.587786 -0.809017 0.000000
vn 0.587786 -0.809017 0.000000
vn -0.809017 0.587785 0.000000
vn 0.809017 -0.587785 0.000000
vn 0.809017 -0.587785 0.000000
vn -0.951057 0.309017 0.000000
vn 0.951057 -0.309017 0.000000
vn 0.951057 -0.309017 0.000000
vn -1.000000 0.000000 0.000000
vn 1.000000 0.000000 0.000000
vn 1.000000 0.000000 0.000000
vn -0.951057 -0.309017 0.000000
vn 0.951056 0.309017 0.000000
vn 0.951056 0.309017 0.000000
vn -0.809017 -0.587785 0.000000
vn 0.809017 0.587785 0.000000
vn 0.809017 0.587785 0.000000
vn -0.587785 -0.809017 0.000000
vn 0.587785 0.809017 0.000000
vn 0.587785 0.809017 0.000000
vn -0.309016 -0.951057 0.000000
vn 0.309017 0.951057 -0.000001
vn 0.309017 0.951057 -0.000001
vn 0.000000 -1.000000 -0.000001
vn 0.000000 1.000000 -0.000000
vn -0.000000 1.000000 -0.000000
vn 0.309017 -0.951057 -0.000003
vn -0.309017 0.951057 0.000000
vn -0.309017 0.951057 0.000000
vn 0.587785 -0.809017 -0.000002
vn -0.587785 0.809017 0.000000
vn -0.587785 0.809017 0.000000
vn 0.809017 -0.587785 0.000000
vn -0.809017 0.587785 0.000000
vn -0.809017 0.587785 0.000000
vn 0.951057 -0.309017 0.000000
vn -0.951057 0.309017 0.000000
vn -0.951057 0.309017 0.000000
vn 1.000000 -0.000001 0.000000
vn -1.000000 0.000001 0.000000
vn -1.000000 0.000001 0.000000
vn 0.951057 0.309016 0.000000
vn -0.951057 -0.309016 0.000000
vn -0.951057 -0.309016 0.000000
vn 0.809017 0.587786 0.000000
vn -0.809017 -0.587785 0.000000
vn -0.809017 -0.587785 0.000000
vn 0.587785 0.809018 0.000000
vn -0.587785 -0.809017 0.000000
vn -0.587785 -0.809017 0.000000
vn 0.309016 0.951057 0.000000
vn -0.309017 -0.951057 0.000003
vn -0.309017 -0.951057 0.000003
vn -0.951057 0.000000 -0.309016
vn -0.809017 0.000000 -0.587785
vn -0.809017 0.000000 -0.587785
vn -0.951057 0.000000 -0.309016
vn -0.587785 0.000000 -0.809017
vn -0.587785 0.000000 -0.809017
vn -0.309016 0.000000 -0.951057
vn -0.309016 0.000000 -0.951057
vn 0.000000 0.000000 -1.000000
vn 0.000000 0.000000 -1.000000
vn 0.309017 0.000000 -0.951057
vn 0.309017 0.000000 -0.951057
vn 0.587786 0.000000 -0.809017
vn 0.587786 0.000000 -0.809017
vn 0.809017 0.000000 -0.587785
vn 0.809017 0.000000 -0.587785
vn 0.951056 0.000000 -0.309017
vn 0.951056 0.000000 -0.309017
vn 1.000000 0.000000 0.000000
vn 1.000000 0.000000 0.000000
vn 0.951057 0.000000 0.309017
vn 0.951057 0.000000 0.309017
vn 0.809017 0.000000 0.587785
vn 0.809017 0.000000 0.587785
vn 0.587785 0.000000 0.809017
vn 0.587785 0.000000 0.809017
vn 0.309017 0.000000 0.951057
vn 0.309017 0.000000 0.951057
vn -0.000000 0.000000 1.000000
vn -0.000000 0.000000 1.000000
vn -0.309017 0.000000 0.951056
vn -0.309017 0.000000 0.951056
vn -0.587785 0.000000 0.809017
vn -0.587785 0.000000 0.809017
vn -0.809017 0.000000 0.587785
vn -0.809017 0.000000 0.587785
vn -0.951057 0.000000 0.309016
vn -0.951057 0.000000 0.309016
vn -1.000000 0.000000 0.000001
vn -1.000000 0.000000 0.000001
vn 0.000000 1.000000 0.000007
vn 0.000000 1.000000 0.000007
vn 0.000000 1.000000 -0.000001
vn 0.000000 1.000000 0.000000
vn 0.000000 1.000000 0.000000
vn 0.000000 1.000000 0.000000
vn 0.000000 1.000000 -0.000007
vn 0.000000 1.000000 -0.000007
vn 0.000000 1.000000 0.000000
vn 0.000000 1.000000 0.000000
vn 0.000000 1.000000 0.000000
vn 0.000000 1.000000 -0.000007
vn 0.000000 1.000000 -0.000007
vn 0.000000 1.000000 0.000000
vn 0.000000 1.000000 -0.000000
vn 0.000000 1.000000 -0.000000
vn 0.000000 1.000000 0.000000
vn 0.000000 1.000000 0.000000
vn 0.000000 1.000000 0.000015
vn 0.000000 1.000000 0.000000
vn 0.000000 1.000000 -0.000015
s 1
g hammer
usemtl initialShadingGroup
f 1/288/1 2/305/2 22/3/3 21/4/4
f 2/305/2 3/304/5 23/6/6 22/3/3
f 3/304/5 4/303/7 24/8/8 23/6/6
f 4/303/7 5/302/9 25/10/10 24/8/8
f 5/302/9 6/301/11 26/12/12 25/10/10
f 6/301/11 7/300/13 27/14/14 26/12/12
f 7/300/13 8/299/15 28/16/16 27/14/14
f 8/299/15 9/396/17 29/18/18 28/16/16
f 9/396/17 10/397/19 30/286/20 29/18/18
f 10/298/19 11/297/21 31/22/22 30/20/20
f 11/297/21 12/296/23 32/24/24 31/22/22
f 12/296/23 13/295/25 33/26/26 32/24/24
f 13/295/25 14/294/27 34/28/28 33/26/26
f 14/294/27 15/293/29 35/30/30 34/28/28
f 15/293/29 16/292/31 36/32/32 35/30/30
f 16/292/31 17/291/33 37/34/34 36/32/32
f 17/291/33 18/290/35 38/36/36 37/34/34
f 18/290/35 19/289/37 39/38/38 38/36/36
f 19/289/37 20/287/39 40/40/40 39/38/38
f 20/287/39 1/288/1 21/4/4 40/40/40
s 2
f 2/2/41 1/1/42 41/41/43
f 3/5/44 2/2/41 41/41/43
f 4/7/45 3/5/44 41/41/43
f 5/9/46 4/7/45 41/41/43
f 6/11/47 5/9/46 41/41/43
f 7/13/48 6/11/47 41/41/43
f 8/15/49 7/13/48 41/41/43
f 9/17/50 8/15/49 41/41/43
f 10/19/51 9/17/50 41/41/43
f 11/21/52 10/19/51 41/41/43
f 12/23/53 11/21/52 41/41/43
f 13/25/54 12/23/53 41/41/43
f 14/27/55 13/25/54 41/41/43
f 15/29/56 14/27/55 41/41/43
f 16/31/57 15/29/56 41/41/43
f 17/33/58 16/31/57 41/41/43
f 18/35/59 17/33/58 41/41/43
f 19/37/60 18/35/59 41/41/43
f 20/39/61 19/37/60 41/41/43
f 1/1/42 20/39/61 41/41/43
s 3
f 42/309/62 43/325/63 63/44/64 62/45/65
f 43/325/63 44/324/66 64/47/67 63/44/64
f 44/324/66 45/323/68 65/49/69 64/47/67
f 45/323/68 46/322/70 66/51/71 65/49/69
f 46/322/70 47/321/72 67/53/73 66/51/71
f 47/321/72 48/320/74 68/55/75 67/53/73
f 48/320/74 49/319/76 69/57/77 68/55/75
f 49/319/76 50/398/78 70/59/79 69/57/77
f 50/398/78 51/399/80 71/306/81 70/59/79
f 51/307/80 52/318/82 72/63/83 71/61/81
f 52/318/82 53/317/84 73/65/85 72/63/83
f 53/317/84 54/316/86 74/67/87 73/65/85
f 54/316/86 55/315/88 75/69/89 74/67/87
f 55/315/88 56/314/90 76/71/91 75/69/89
f 56/314/90 57/313/92 77/73/93 76/71/91
f 57/313/92 58/312/94 78/75/95 77/73/93
f 58/312/94 59/311/96 79/77/97 78/75/95
f 59/311/96 60/310/98 80/79/99 79/77/97
f 60/310/98 61/308/100 81/81/101 80/79/99
f 61/308/100 42/309/62 62/45/65 81/81/101
s 4
f 43/43/102 42/42/103 82/82/104
f 44/46/105 43/43/102 82/82/104
f 45/48/106 44/46/105 82/82/104
f 46/50/107 45/48/106 82/82/104
f 47/52/108 46/50/107 82/82/104
f 48/54/109 47/52/108 82/82/104
f 49/56/110 48/54/109 82/82/104
f 50/58/111 49/56/110 82/82/104
f 51/60/112 50/58/111 82/82/104
f 52/62/113 51/60/112 82/82/104
f 53/64/114 52/62/113 82/82/104
f 54/66/115 53/64/114 82/82/104
f 55/68/116 54/66/115 82/82/104
f 56/70/117 55/68/116 82/82/104
f 57/72/118 56/70/117 82/82/104
f 58/74/119 57/72/118 82/82/104
f 59/76/120 58/74/119 82/82/104
f 60/78/121 59/76/120 82/82/104
f 61/80/122 60/78/121 82/82/104
f 42/42/103 61/80/122 82/82/104
s 5
f 83/83/123 84/84/124 104/85/125 103/86/126
f 84/84/124 85/87/127 105/88/128 104/85/125
f 85/87/127 86/89/129 106/90/130 105/88/128
f 86/89/129 87/91/131 107/92/132 106/90/130
f 87/91/131 88/93/133 108/94/134 107/92/132
f 88/93/133 89/95/135 109/96/136 108/94/134
f 89/95/135 90/97/137 110/98/138 109/96/136
f 90/97/137 91/99/139 111/100/140 110/98/138
f 91/99/139 92/101/141 112/346/142 111/100/140
f 92/347/141 93/103/143 113/104/144 112/102/142
f 93/103/143 94/105/145 114/106/146 113/104/144
f 94/105/145 95/107/147 115/108/148 114/106/146
f 95/107/147 96/109/149 116/110/150 115/108/148
f 96/109/149 97/111/151 117/112/152 116/110/150
f 97/111/151 98/113/153 118/114/154 117/112/152
f 98/113/153 99/115/155 119/116/156 118/114/154
f 99/115/155 100/117/157 120/118/158 119/116/156
f 100/117/157 101/119/159 121/120/160 120/118/158
f 101/119/159 102/121/161 122/122/162 121/120/160
f 102/121/161 83/83/123 103/86/126 122/122/162
s 6
f 128/366/163 129/365/164 123/125/165
f 127/367/166 128/366/163 123/125/165
f 126/368/167 127/367/166 123/125/165
f 125/351/168 126/368/167 123/125/165
f 144/350/169 125/351/168 123/125/165
f 143/352/170 144/350/169 123/125/165
f 142/353/171 143/352/170 123/125/165
f 141/393/172 142/353/171 123/125/165
f 140/355/173 141/393/172 123/125/165
f 139/354/174 140/355/173 123/125/165
f 138/356/175 139/354/174 123/125/165
f 137/357/176 138/356/175 123/125/165
f 136/358/177 137/357/176 123/125/165
f 135/359/178 136/358/177 123/125/165
f 134/360/179 135/359/178 123/125/165
f 133/361/180 134/360/179 123/125/165
f 132/362/181 133/361/180 123/125/165
f 131/363/182 132/362/181 123/125/165
f 130/364/183 131/363/182 123/125/165
f 129/365/164 130/364/183 123/125/165
s 7
f 201/375/184 202/374/185 124/146/186
f 202/374/185 203/373/187 124/146/186
f 203/373/187 204/371/188 124/146/186
f 204/371/188 185/372/189 124/146/186
f 185/372/189 186/389/190 124/146/186
f 186/389/190 187/388/191 124/146/186
f 187/388/191 188/387/192 124/146/186
f 188/387/192 189/390/193 124/146/186
f 189/390/193 190/391/194 124/146/186
f 190/391/194 191/385/195 124/146/186
f 191/385/195 192/384/196 124/146/186
f 192/384/196 193/383/197 124/146/186
f 193/383/197 194/382/198 124/146/186
f 194/382/198 195/381/199 124/146/186
f 195/381/199 196/380/200 124/146/186
f 196/380/200 197/379/201 124/146/186
f 197/379/201 198/378/202 124/146/186
f 198/378/202 199/377/203 124/146/186
f 199/377/203 200/376/204 124/146/186
f 200/376/204 201/375/184 124/146/186
s 8
f 146/165/205 145/166/206 147/167/207 148/168/208
f 145/166/206 149/169/209 150/170/210 147/167/207
f 149/169/209 151/171/211 152/172/212 150/170/210
f 151/171/211 153/173/213 154/174/214 152/172/212
f 153/173/213 155/175/215 156/176/216 154/174/214
f 155/175/215 157/177/217 158/178/218 156/176/216
f 157/177/217 159/179/219 160/180/220 158/178/218
f 159/179/219 161/181/221 162/182/222 160/180/220
f 161/181/221 163/183/223 164/184/224 162/182/222
f 163/183/223 165/185/225 166/186/226 164/184/224
f 165/185/225 167/187/227 168/188/228 166/186/226
f 167/187/227 169/189/229 170/190/230 168/188/228
f 169/189/229 171/191/231 172/192/232 170/190/230
f 171/191/231 173/193/233 174/194/234 172/192/232
f 173/193/233 175/349/235 176/348/236 174/194/234
f 175/195/235 177/197/237 178/198/238 176/196/236
f 177/197/237 179/199/239 180/200/240 178/198/238
f 179/199/239 181/201/241 182/202/242 180/200/240
f 181/201/241 183/203/243 184/204/244 182/202/242
f 183/203/243 146/165/205 148/168/208 184/204/244
s 5
f 87/91/131 86/89/129 145/166/245 146/165/246
s 9
f 126/127/247 125/128/248 148/168/249 147/167/250
s 5
f 86/89/129 85/87/127 149/169/251 145/166/245
s 9
f 127/126/252 126/127/247 147/167/250 150/170/253
s 5
f 85/87/127 84/84/124 151/171/254 149/169/251
s 9
f 128/123/255 127/126/252 150/170/253 152/172/256
s 5
f 84/84/124 83/83/123 153/173/257 151/171/254
s 9
f 129/124/258 128/123/255 152/172/256 154/174/259
s 5
f 83/83/123 102/121/161 155/175/260 153/173/257
s 9
f 130/143/261 129/124/258 154/174/259 156/176/262
s 5
f 102/121/161 101/119/159 157/177/263 155/175/260
s 9
f 131/142/264 130/143/261 156/176/262 158/178/265
s 5
f 101/119/159 100/117/157 159/179/266 157/177/263
s 9
f 132/141/267 131/142/264 158/178/265 160/180/268
s 5
f 100/117/157 99/115/155 161/181/269 159/179/266
s 9
f 133/140/270 132/141/267 160/180/268 162/182/271
s 5
f 99/115/155 98/113/153 163/183/272 161/181/269
s 9
f 134/139/273 133/140/270 162/182/271 164/184/274
s 5
f 98/113/153 97/111/151 165/185/275 163/183/272
s 9
f 135/138/276 134/139/273 164/184/274 166/186/277
s 5
f 97/111/151 96/109/149 167/187/278 165/185/275
s 9
f 136/137/279 135/138/276 166/186/277 168/188/280
s 5
f 96/109/149 95/107/147 169/189/281 167/187/278
s 9
f 137/136/282 136/137/279 168/188/280 170/190/283
s 5
f 95/107/147 94/105/145 171/191/284 169/189/281
s 9
f 138/135/285 137/136/282 170/190/283 172/192/286
s 5
f 94/105/145 93/103/143 173/193/287 171/191/284
s 9
f 139/134/288 138/135/285 172/192/286 174/194/289
s 5
f 93/103/143 92/347/141 175/349/290 173/193/287
s 9
f 140/133/291 139/134/288 174/194/289 176/348/292
s 5
f 92/101/141 91/99/139 177/197/293 175/195/290
s 9
f 141/132/294 140/392/291 176/196/292 178/198/295
s 5
f 91/99/139 90/97/137 179/199/296 177/197/293
s 9
f 142/131/297 141/132/294 178/198/295 180/200/298
s 5
f 90/97/137 89/95/135 181/201/299 179/199/296
s 9
f 143/130/300 142/131/297 180/200/298 182/202/301
s 5
f 89/95/135 88/93/133 183/203/302 181/201/299
s 9
f 144/129/303 143/130/300 182/202/301 184/204/304
s 5
f 88/93/133 87/91/131 146/165/246 183/203/302
s 9
f 125/128/248 144/129/303 184/204/304 148/168/249
s 10
f 205/205/305 206/206/306 207/207/307 208/208/308
f 206/206/306 209/209/309 210/210/310 207/207/307
f 209/209/309 211/211/311 212/212/312 210/210/310
f 211/211/311 213/213/313 214/214/314 212/212/312
f 213/213/313 215/369/315 216/370/316 214/214/314
f 215/215/315 217/217/317 218/218/318 216/216/316
f 217/217/317 219/219/319 220/220/320 218/218/318
f 219/219/319 221/221/321 222/222/322 220/220/320
f 221/221/321 223/223/323 224/224/324 222/222/322
f 223/223/323 225/225/325 226/226/326 224/224/324
f 225/225/325 227/227/327 228/228/328 226/226/326
f 227/227/327 229/229/329 230/230/330 228/228/328
f 229/229/329 231/231/331 232/232/332 230/230/330
f 231/231/331 233/233/333 234/234/334 232/232/332
f 233/233/333 235/235/335 236/236/336 234/234/334
f 235/235/335 237/237/337 238/238/338 236/236/336
f 237/237/337 239/239/339 240/240/340 238/238/338
f 239/239/339 241/241/341 242/242/342 240/240/340
f 241/241/341 243/243/343 244/244/344 242/242/342
f 243/243/343 205/205/305 208/208/308 244/244/344
s 5
f 107/92/132 108/94/134 206/206/345 205/205/346
s 11
f 186/150/347 185/149/348 208/208/349 207/207/350
s 5
f 108/94/134 109/96/136 209/209/351 206/206/345
s 11
f 187/151/352 186/150/347 207/207/350 210/210/353
s 5
f 109/96/136 110/98/138 211/211/354 209/209/351
s 11
f 188/152/355 187/151/352 210/210/353 212/212/356
s 5
f 110/98/138 111/100/140 213/213/357 211/211/354
s 11
f 189/153/358 188/152/355 212/212/356 214/214/359
s 5
f 111/100/140 112/346/142 215/369/360 213/213/357
s 11
f 190/154/361 189/153/358 214/214/359 216/370/362
s 5
f 112/102/142 113/104/144 217/217/363 215/215/360
s 11
f 191/155/364 190/386/361 216/216/362 218/218/365
s 5
f 113/104/144 114/106/146 219/219/366 217/217/363
s 11
f 192/156/367 191/155/364 218/218/365 220/220/368
s 5
f 114/106/146 115/108/148 221/221/369 219/219/366
s 11
f 193/157/370 192/156/367 220/220/368 222/222/371
s 5
f 115/108/148 116/110/150 223/223/372 221/221/369
s 11
f 194/158/373 193/157/370 222/222/371 224/224/374
s 5
f 116/110/150 117/112/152 225/225/375 223/223/372
s 11
f 195/159/376 194/158/373 224/224/374 226/226/377
s 5
f 117/112/152 118/114/154 227/227/378 225/225/375
s 11
f 196/160/379 195/159/376 226/226/377 228/228/380
s 5
f 118/114/154 119/116/156 229/229/381 227/227/378
s 11
f 197/161/382 196/160/379 228/228/380 230/230/383
s 5
f 119/116/156 120/118/158 231/231/384 229/229/381
s 11
f 198/162/385 197/161/382 230/230/383 232/232/386
s 5
f 120/118/158 121/120/160 233/233/387 231/231/384
s 11
f 199/163/388 198/162/385 232/232/386 234/234/389
s 5
f 121/120/160 122/122/162 235/235/390 233/233/387
s 11
f 200/164/391 199/163/388 234/234/389 236/236/392
s 5
f 122/122/162 103/86/126 237/237/393 235/235/390
s 11
f 201/144/394 200/164/391 236/236/392 238/238/395
s 5
f 103/86/126 104/85/125 239/239/396 237/237/393
s 11
f 202/145/397 201/144/394 238/238/395 240/240/398
s 5
f 104/85/125 105/88/128 241/241/399 239/239/396
s 11
f 203/147/400 202/145/397 240/240/398 242/242/401
s 5
f 105/88/128 106/90/130 243/243/402 241/241/399
s 11
f 204/148/403 203/147/400 242/242/401 244/244/404
s 5
f 106/90/130 107/92/132 205/205/346 243/243/402
s 11
f 185/149/348 204/148/403 244/244/404 208/208/349
s 12
f 245/395/405 246/345/406 266/247/407 265/248/408
f 246/345/406 247/344/409 267/250/410 266/247/407
f 247/344/409 248/343/411 268/252/412 267/250/410
f 248/343/411 249/342/413 269/254/414 268/252/412
f 249/342/413 250/341/415 270/256/416 269/254/414
f 250/341/415 251/340/417 271/258/418 270/256/416
f 251/340/417 252/339/419 272/260/420 271/258/418
f 252/339/419 253/338/421 273/262/422 272/260/420
f 253/338/421 254/337/423 274/264/424 273/262/422
f 254/337/423 255/336/425 275/266/426 274/264/424
f 255/336/425 256/335/427 276/268/428 275/266/426
f 256/335/427 257/334/429 277/270/430 276/268/428
f 257/334/429 258/333/431 278/272/432 277/270/430
f 258/333/431 259/332/433 279/274/434 278/272/432
f 259/332/433 260/331/435 280/276/436 279/274/434
f 260/331/435 261/330/437 281/278/438 280/276/436
f 261/330/437 262/329/439 282/280/440 281/278/438
f 262/329/439 263/327/441 283/282/442 282/280/440
f 263/327/441 264/328/443 284/326/444 283/282/442
f 264/394/443 245/395/405 265/248/408 284/284/444
s 13
f 246/246/445 245/245/446 285/285/447
f 247/249/448 246/246/445 285/285/447
f 248/251/449 247/249/448 285/285/447
f 249/253/450 248/251/449 285/285/447
f 250/255/451 249/253/450 285/285/447
f 251/257/452 250/255/451 285/285/447
f 252/259/453 251/257/452 285/285/447
f 253/261/454 252/259/453 285/285/447
f 254/263/455 253/261/454 285/285/447
f 255/265/456 254/263/455 285/285/447
f 256/267/457 255/265/456 285/285/447
f 257/269/458 256/267/457 285/285/447
f 258/271/459 257/269/458 285/285/447
f 259/273/460 258/271/459 285/285/447
f 260/275/461 259/273/460 285/285/447
f 261/277/462 260/275/461 285/285/447
f 262/279/463 261/277/462 285/285/447
f 263/281/464 262/279/463 285/285/447
f 264/283/465 263/281/464 285/285/447
f 245/245/446 264/283/465 285/285/447
